<?xml version="1.0" encoding="UTF-8"?>
<svg version="1.1" xmlns="http://www.w3.org/2000/svg" width="200" height="200">
<path d="M0 0 C12.47136036 9.71525862 22.03611199 23.55633003 25.390625 39.17578125 C27.37887351 55.77410583 26.20244766 70.28441677 19.24291992 85.53613281 C18.79115891 86.52703918 18.33939789 87.51794556 17.87394714 88.53887939 C17.52882584 89.29433044 17.18370453 90.04978149 16.828125 90.828125 C17.56981682 91.55982407 17.56981682 91.55982407 18.32649231 92.30630493 C22.99814679 96.91770401 27.66244849 101.53640083 32.31874561 106.1633091 C34.71252237 108.54146852 37.10899227 110.9167724 39.51196289 113.28564453 C42.27683014 116.01406613 45.03184882 118.7521071 47.78515625 121.4921875 C49.07435722 122.75816269 49.07435722 122.75816269 50.38960266 124.04971313 C59.42703132 133.08458395 59.42703132 133.08458395 60.203125 140.328125 C59.6471824 145.51692262 58.1617985 148.59447701 54.328125 152.140625 C50.13756984 154.96924973 46.80776345 155.24309487 41.828125 154.828125 C35.22061118 151.76978128 30.66989328 147.05870144 25.61328125 141.90625 C24.75754013 141.04626404 23.90179901 140.18627808 23.02012634 139.30023193 C20.30313651 136.5665224 17.59679639 133.82254022 14.890625 131.078125 C13.04431424 129.21675883 11.19731631 127.356074 9.34960938 125.49609375 C4.83446028 120.94796433 0.32799694 116.39136732 -4.171875 111.828125 C-5.30625 112.31023437 -6.440625 112.79234375 -7.609375 113.2890625 C-9.13008215 113.92738402 -10.65092266 114.56538791 -12.171875 115.203125 C-12.91566406 115.52023438 -13.65945312 115.83734375 -14.42578125 116.1640625 C-31.14839971 123.14393803 -50.75063522 123.29315419 -67.5390625 116.45703125 C-84.48840348 108.72412623 -96.92257819 96.0539572 -104.17578125 78.76171875 C-110.01649524 61.56024344 -110.21082796 43.19171395 -102.45556641 26.60717773 C-93.77651815 9.04614645 -80.59247483 -3.72376577 -61.9765625 -10.30078125 C-39.9212696 -16.52073442 -18.7407651 -12.83234655 0 0 Z M-85.171875 13.828125 C-90.7810505 20.90766689 -95.49607487 28.12068702 -98.171875 36.828125 C-98.39488281 37.49457031 -98.61789063 38.16101563 -98.84765625 38.84765625 C-103.25691954 54.53503516 -99.69864605 70.45815915 -92.1953125 84.45703125 C-89.1290474 89.56549995 -85.43152921 93.69127163 -81.171875 97.828125 C-80.63175781 98.38886719 -80.09164062 98.94960937 -79.53515625 99.52734375 C-69.58954586 109.0721235 -54.84114536 113.68341629 -41.359375 114.265625 C-23.00586102 113.70798851 -7.61566605 105.99329525 4.828125 92.828125 C14.70361698 81.36097863 19.45029411 66.20627484 19.140625 51.16796875 C17.61831628 34.89829426 11.33671899 22.3962462 -0.171875 10.828125 C-0.77515625 10.19003906 -1.3784375 9.55195312 -2 8.89453125 C-12.7900223 -1.63746878 -27.85845132 -5.57966162 -42.51977539 -5.54101562 C-58.91402534 -5.0967173 -74.04431577 1.69627342 -85.171875 13.828125 Z " fill="#E35885" transform="translate(124.171875,29.171875)"/>
<path d="M0 0 C1.15886719 -0.00257812 2.31773438 -0.00515625 3.51171875 -0.0078125 C6.3125 0.125 6.3125 0.125 7.3125 1.125 C7.4375 3.625 7.4375 3.625 7.3125 6.125 C5.55940576 7.87809424 3.14406008 7.63551074 0.78881836 7.97363281 C-12.55933698 9.9498717 -24.28377989 14.61683155 -32.625 25.69921875 C-38.6616844 34.71651607 -40.84840429 42.81816934 -42.2578125 53.5 C-42.6875 56.125 -42.6875 56.125 -43.6875 57.125 C-46.1875 57.25 -46.1875 57.25 -48.6875 57.125 C-50.48706424 55.32543576 -49.94515564 52.74585788 -50 50.3125 C-49.87669701 36.24054597 -43.52683746 24.48233031 -34.06640625 14.4140625 C-24.97520797 5.66620997 -12.64561867 -0.02832165 0 0 Z " fill="#E45886" transform="translate(79.6875,29.875)"/>
</svg>
