<?xml version="1.0" encoding="UTF-8"?>
<svg version="1.1" xmlns="http://www.w3.org/2000/svg" width="512" height="512">
<path d="M0 0 C2.625 2.4375 2.625 2.4375 4.625 5.4375 C7.19125999 5.55442072 9.57280323 5.51924448 12.125 5.375 C21.3303675 5.14507111 27.93233104 6.67065439 34.9375 13 C42.92210456 21.64729441 44.96687523 31.81414637 44.83984375 43.21875 C43.84450225 58.13077537 36.78946394 70.44847082 26.26171875 80.75 C12.4814389 92.79467556 -5.02986923 100.70222422 -23.375 101.4375 C-23.045 103.7475 -22.715 106.0575 -22.375 108.4375 C-21.90449219 108.08816406 -21.43398438 107.73882812 -20.94921875 107.37890625 C-20.32660156 106.92386719 -19.70398438 106.46882813 -19.0625 106 C-18.14017578 105.32130859 -18.14017578 105.32130859 -17.19921875 104.62890625 C-11.60048718 100.97234709 -3.72879424 101.64208451 2.59592056 102.7975769 C7.75045229 103.97287113 12.80249546 105.51023146 17.86328125 107.03125 C19.48093622 107.50359489 21.09904354 107.97439309 22.71757507 108.44372559 C26.93555893 109.67126199 31.14714794 110.91943448 35.35766602 112.17230225 C39.67156246 113.45183569 43.99129411 114.71134739 48.31054688 115.97265625 C56.75446928 118.44159899 65.19172908 120.93241709 73.625 123.4375 C73.14281006 121.77533447 73.14281006 121.77533447 72.65087891 120.07958984 C66.12084789 96.89658109 71.19867827 67.74357897 81.875 46.6875 C90.32404463 31.82883531 102.6879831 19.22361767 119.40234375 14.33203125 C131.05456416 11.56781341 142.49741207 12.61952445 152.79296875 18.72265625 C159.70578695 23.37875706 164.70747121 30.28800265 166.625 38.4375 C167.35440411 42.428676 168.01490309 46.42643732 168.625 50.4375 C169.470625 50.65664062 170.31625 50.87578125 171.1875 51.1015625 C182.24819489 54.19352948 189.52704767 58.46463684 195.81640625 68.30078125 C200.58835296 77.66177775 200.41968042 91.38226581 197.70703125 101.40625 C195.37564802 107.8647097 192.21916366 113.3492272 187.625 118.4375 C186.98949219 119.16453125 186.35398437 119.8915625 185.69921875 120.640625 C174.18651371 133.01625674 158.27552131 140.14178628 141.625 142.4375 C143.60641687 143.06423077 145.58788559 143.69079797 147.56958008 144.31665039 C149.28612378 144.85964038 151.00210025 145.40442651 152.7175293 145.95092773 C156.87858384 147.27299162 161.04092454 148.5710554 165.23828125 149.7734375 C165.94855469 149.98137939 166.65882813 150.18932129 167.390625 150.40356445 C169.32658792 150.96768151 171.26670501 151.51748494 173.20703125 152.06640625 C178.2513461 154.08989712 181.5825638 156.71208837 184.4375 161.4375 C187.27489587 168.605658 187.38468461 175.11392795 184.76953125 182.34765625 C181.32955277 188.62884563 177.39969028 191.53911867 170.9921875 194.29296875 C170.24887177 194.62725388 169.50555603 194.961539 168.73971558 195.30595398 C166.3745752 196.36502435 164.0004878 197.40187974 161.625 198.4375 C160.11307891 199.10900156 158.60167945 199.7816789 157.09082031 200.45556641 C153.16182343 202.20205347 149.22388696 203.9273297 145.28253174 205.64572144 C140.80074581 207.59994774 136.32257873 209.56244569 131.84375 211.5234375 C130.91736725 211.9287822 129.9909845 212.33412689 129.03652954 212.75175476 C119.98526345 216.7135304 110.94629283 220.70291033 101.91009521 224.69891357 C99.2556769 225.87249012 96.60079169 227.04500465 93.94580078 228.21728516 C85.46695473 231.96225358 76.99234705 235.71634459 68.52719116 239.49217224 C64.52562546 241.27641851 60.52226855 243.05662442 56.51873779 244.8364563 C54.60055209 245.69059938 52.68326242 246.54675774 50.76690674 247.40499878 C48.11761699 248.59136919 45.46542456 249.77100389 42.8125 250.94921875 C42.02402679 251.30445618 41.23555359 251.6596936 40.42318726 252.0256958 C34.96659227 254.4375 34.96659227 254.4375 31.625 254.4375 C31.78484375 255.15164063 31.9446875 255.86578125 32.109375 256.6015625 C33.75658754 265.66123146 32.80963044 272.36568115 27.9375 280.125 C22.27307833 285.78942167 13.65297142 288.00727599 6.24609375 290.60546875 C4.59096016 291.1932737 4.59096016 291.1932737 2.90238953 291.79295349 C0.52874877 292.63536193 -1.845704 293.47548522 -4.22088623 294.3135376 C-7.99607286 295.6456683 -11.76918744 296.98350103 -15.54150391 298.32373047 C-16.49345894 298.66192055 -16.49345894 298.66192055 -17.46464539 299.00694275 C-18.75141474 299.46409534 -20.03817569 299.92127159 -21.32492828 300.37847137 C-23.26754035 301.06847404 -25.2103763 301.75784309 -27.15325928 302.44708252 C-38.86945093 306.60475729 -50.56294012 310.82374932 -62.25 315.0625 C-66.09884452 316.45734545 -69.94784618 317.85175697 -73.796875 319.24609375 C-74.74788589 319.5906662 -75.69889679 319.93523865 -76.6787262 320.29025269 C-87.61352723 324.25078548 -98.55665531 328.18814936 -109.5 332.125 C-122.94969888 336.96381765 -136.39851629 341.80503646 -149.84375 346.65625 C-151.69601196 347.32455589 -151.69601196 347.32455589 -153.58569336 348.00636292 C-158.66345746 349.83849558 -163.74119004 351.67071556 -168.81884766 353.50314331 C-182.99827528 358.62002634 -197.18015773 363.72994723 -211.36867142 368.82158852 C-213.52767251 369.59637242 -215.68661818 370.37131058 -217.84555054 371.14628601 C-224.03704248 373.36867605 -230.22867244 375.5906707 -236.42159843 377.809062 C-238.33088836 378.49329514 -240.23986423 379.17839807 -242.14877319 379.86369324 C-244.61604331 380.74872408 -247.08414961 381.63142767 -249.5531311 382.51167297 C-255.66473063 384.69999137 -261.73933046 386.95308496 -267.78027344 389.33007812 C-268.98231415 389.79637634 -270.18435486 390.26267456 -271.42282104 390.74310303 C-273.67368786 391.62003869 -275.91803387 392.51400938 -278.15359497 393.42926025 C-286.5502895 396.68027179 -295.04231674 398.08578392 -303.8125 395.375 C-308.07671817 392.15083504 -311.66681792 388.56204624 -313.375 383.4375 C-315.29946165 369.41092377 -310.66830699 360.14565606 -304 348.125 C-303.11804704 346.48144898 -302.23912505 344.83626781 -301.36328125 343.18945312 C-299.60774473 339.89992182 -297.8350226 336.62065851 -296.04663086 333.34887695 C-289.19454833 320.79445937 -282.64227172 308.07373279 -276.0625 295.375 C-275.48177734 294.25673828 -274.90105469 293.13847656 -274.30273438 291.98632812 C-270.9382848 285.49693216 -267.62073641 278.98711368 -264.375 272.4375 C-264.83036133 271.98769775 -265.28572266 271.53789551 -265.75488281 271.07446289 C-278.60309796 258.09265418 -283.65832142 239.48678473 -283.61938477 221.75537109 C-283.39187911 206.2106383 -277.6251577 192.93724092 -266.8203125 181.65625 C-256.61360961 172.39521607 -244.08082762 167.33703115 -230.3125 167.25 C-229.31089844 167.23582031 -228.30929688 167.22164062 -227.27734375 167.20703125 C-221.58143544 167.54342624 -216.00006607 168.5051832 -210.375 169.4375 C-209.77196045 168.26900513 -209.77196045 168.26900513 -209.15673828 167.0769043 C-195.63194628 140.87816669 -195.63194628 140.87816669 -189.15478516 128.62182617 C-185.52567796 121.74558388 -181.94944809 114.84228288 -178.375 107.9375 C-174.01861363 99.52256005 -169.64922688 91.11550702 -165.21191406 82.74291992 C-163.03841493 78.63234514 -160.89448026 74.50840144 -158.78381348 70.36514282 C-157.54240897 67.92868362 -156.29575235 65.49492334 -155.04931641 63.06103516 C-154.15116007 61.30125605 -153.26100352 59.53740119 -152.37109375 57.7734375 C-142.93958004 39.36572453 -142.93958004 39.36572453 -133.4375 35.6875 C-123.11238438 34.43597083 -115.74023068 38.5645812 -107.125 43.625 C-105.26843171 44.70087042 -103.4116492 45.77637124 -101.5546875 46.8515625 C-100.56307617 47.4280957 -99.57146484 48.00462891 -98.54980469 48.59863281 C-93.39941981 51.58176869 -88.2258112 54.52412948 -83.0546875 57.47109985 C-71.46652595 64.0778177 -59.90740687 70.73393345 -48.375 77.4375 C-48.98988281 75.96990234 -48.98988281 75.96990234 -49.6171875 74.47265625 C-57.25596068 56.0069781 -60.62516967 36.147612 -53.125 16.9375 C-48.26811641 6.45685646 -41.30880536 -1.44791885 -30.48828125 -5.8125 C-19.56247694 -9.69004978 -8.84887685 -7.05777889 0 0 Z " fill="#FBFBFB" transform="translate(313.375,115.5625)"/>
<path d="M0 0 C2.23461914 1.05297852 2.23461914 1.05297852 4.53515625 2.37890625 C5.41196045 2.87946533 6.28876465 3.38002441 7.19213867 3.89575195 C8.13935791 4.44577881 9.08657715 4.99580566 10.0625 5.5625 C11.06837158 6.13895264 12.07424316 6.71540527 13.1105957 7.30932617 C15.2820551 8.55430951 17.45183752 9.80222139 19.62011719 11.05273438 C24.14052781 13.65709692 28.6727252 16.24058779 33.20458984 18.82495117 C36.12389626 20.49005794 39.04074727 22.15941785 41.95706177 23.82975769 C46.91909242 26.67159995 51.88558827 29.50511095 56.86235046 32.3210907 C59.43612465 33.77768278 62.0081046 35.23742727 64.57998657 36.69735718 C65.80515378 37.39165282 67.03119045 38.08441673 68.25814819 38.77554321 C69.96471223 39.73700639 71.66797054 40.70432987 73.37109375 41.671875 C74.33974365 42.2194043 75.30839355 42.76693359 76.30639648 43.33105469 C82.01470747 46.86789996 84.77156268 49.66176853 86.89453125 56.06640625 C87.13161301 56.74170883 87.36869476 57.41701141 87.61296082 58.11277771 C88.10840882 59.53313313 88.59627295 60.95615441 89.0769043 62.3815918 C89.81312577 64.5643553 90.57132948 66.73845708 91.33398438 68.91210938 C91.81379026 70.29642847 92.29234972 71.68118034 92.76953125 73.06640625 C93.1069207 74.04148888 93.1069207 74.04148888 93.4511261 75.03627014 C94.39026604 77.8317703 95 80.02673913 95 83 C101.16702635 78.18447092 107.03930885 73.21666602 112.67578125 67.78515625 C115.29242758 65.77539596 116.75557617 65.38576991 120 65 C122.26635742 65.41796875 122.26635742 65.41796875 124.60546875 66.1875 C125.49298828 66.47044922 126.38050781 66.75339844 127.29492188 67.04492188 C128.24947266 67.36009766 129.20402344 67.67527344 130.1875 68 C138.74212941 70.72018606 147.31813409 73.21827336 156 75.5 C165.17481024 77.92473737 174.25459002 80.55967845 183.31640625 83.375 C190.50151759 85.58884448 197.73186689 87.57784909 205 89.5 C214.1714797 91.92551529 223.24910314 94.55678641 232.30761719 97.37280273 C239.57748438 99.61378127 246.89561553 101.61861927 254.25 103.5625 C262.09326004 105.63964684 269.88942744 107.79957723 277.625 110.25 C278.36395508 110.48404541 279.10291016 110.71809082 279.86425781 110.95922852 C281.23970374 111.40292588 282.61231646 111.85553647 283.98144531 112.31835938 C285.40133089 112.79783694 286.82865155 113.25557547 288.26074219 113.69726562 C290.4609375 114.421875 290.4609375 114.421875 294 116 C294.72119141 118.09863281 294.72119141 118.09863281 295 120 C288.7038053 124.2497354 282.16120493 127.29143413 275.18417358 130.27182007 C272.3808401 131.4696863 269.58406145 132.68254511 266.78669739 133.89427185 C265.26501602 134.55330371 263.74302581 135.21162288 262.2207489 135.86927795 C253.7559671 139.52873514 245.32251001 143.25849128 236.88989258 146.99133301 C234.16717284 148.19649746 231.44400361 149.40064067 228.72070312 150.60449219 C220.33093494 154.31349562 211.94240899 158.02530063 203.55465698 161.73886108 C182.07434641 171.2480875 160.57650742 180.7107859 139 190 C139.144375 191.24136719 139.28875 192.48273438 139.4375 193.76171875 C139.62514689 195.40362905 139.81263874 197.04555708 140 198.6875 C140.14308594 199.91243164 140.14308594 199.91243164 140.2890625 201.16210938 C140.54726131 203.43979169 140.77809493 205.71853852 141 208 C141.103125 208.95519531 141.20625 209.91039062 141.3125 210.89453125 C141 213 141 213 139.27558899 214.51539612 C136.96400467 216.02348351 134.87763194 216.94519448 132.27807617 217.85913086 C131.33252365 218.19557114 130.38697113 218.53201141 129.4127655 218.87864685 C128.38323257 219.23709183 127.35369965 219.5955368 126.29296875 219.96484375 C125.20603226 220.34983536 124.11909576 220.73482697 122.9992218 221.13148499 C120.63872136 221.96686888 118.27711601 222.79913567 115.91455078 223.62866211 C110.18320952 225.64135178 104.45853331 227.67277827 98.73347855 229.70326614 C96.7473567 230.40743574 94.76094429 231.11078114 92.77450562 231.8140564 C79.65371162 236.4624172 66.57515339 241.22492906 53.5 246 C33.85899863 253.16608112 14.18563654 260.23630136 -5.51025391 267.25 C-22.8653282 273.43185476 -40.19205451 279.68745237 -57.5 286 C-78.86577958 293.79225033 -100.26571557 301.48403024 -121.68945312 309.11523438 C-122.78014099 309.50381622 -123.87082886 309.89239807 -124.99456787 310.29275513 C-127.13904613 311.05639477 -129.2837761 311.81932795 -131.42877197 312.58151245 C-136.95232106 314.54651587 -142.46772668 316.5314535 -147.97363281 318.54541016 C-149.679561 319.16715874 -149.679561 319.16715874 -151.41995239 319.8014679 C-153.58617699 320.591974 -155.75088887 321.38664253 -157.91378784 322.186203 C-167.77774401 325.77999331 -167.77774401 325.77999331 -172 326 C-172.66 325.34 -173.32 324.68 -174 324 C-173.63498247 320.57376288 -172.59390305 317.82948236 -171.02563477 314.78662109 C-170.61753067 313.98743256 -170.20942657 313.18824402 -169.78895569 312.36483765 C-169.34426437 311.5096756 -168.89957306 310.65451355 -168.44140625 309.7734375 C-167.74663429 308.41999741 -167.74663429 308.41999741 -167.03782654 307.03921509 C-165.55181323 304.14813485 -164.05720549 301.26159416 -162.5625 298.375 C-161.59125043 296.48726022 -160.62054213 294.59924184 -159.65039062 292.7109375 C-154.64405251 282.98017105 -149.58282129 273.27922588 -144.4752655 263.60124207 C-141.46591564 257.89655518 -138.49843748 252.17184999 -135.54736328 246.43676758 C-130.25529488 236.15470359 -124.91576269 225.9392162 -119 216 C-115.37721599 217.32321544 -112.42658912 218.94994694 -109.25 221.125 C-104.44429294 224.23112773 -99.53006504 226.85053158 -94.375 229.3125 C-93.6830957 229.64975098 -92.99119141 229.98700195 -92.27832031 230.33447266 C-84.93073486 233.83623821 -84.93073486 233.83623821 -77 235 C-74.15550835 233.57700147 -72.25326352 231.51792048 -70.125 229.1875 C-68.91410006 227.96222737 -67.70053455 226.73958355 -66.484375 225.51953125 C-65.89462891 224.91447754 -65.30488281 224.30942383 -64.69726562 223.68603516 C-62.39484453 221.39884872 -59.91952716 219.38635312 -57.375 217.375 C-52.29736848 213.30691231 -47.53201841 208.96850028 -42.76171875 204.55078125 C-38.20038758 200.3378403 -33.50977708 196.28567106 -28.78515625 192.2578125 C-27.58578591 191.23455265 -26.38657183 190.21110963 -25.1875 189.1875 C-24.58139893 188.67026367 -23.97529785 188.15302734 -23.35083008 187.62011719 C-19.60948459 184.4151062 -15.9389307 181.14798497 -12.3125 177.8125 C-7.8553987 173.71749703 -3.24389766 169.87313053 1.4921875 166.10546875 C6.78786397 162.05500853 6.78786397 162.05500853 9.59375 156.30859375 C9.14687204 142.62295626 5.85575188 128.99272451 -3.625 118.625 C-13.03713189 109.92150352 -23.59655634 107.47898172 -35.953125 107.734375 C-46.29762882 108.22241357 -53.10096727 113.62477141 -60 121 C-65.60356938 127.66105232 -68.97354251 134.88295732 -72 143 C-74.4375 142.3125 -74.4375 142.3125 -77 141 C-78.0625 138.875 -78.0625 138.875 -78 136 C-76.78427161 133.17951013 -75.50964129 130.65724191 -74 128 C-73.07108962 126.3030822 -72.14413574 124.60509247 -71.21875 122.90625 C-70.44917969 121.50439453 -70.44917969 121.50439453 -69.6640625 120.07421875 C-66.8560092 114.88657099 -64.16938536 109.63624251 -61.47238159 104.39031982 C-59.85174128 101.23977837 -58.22498554 98.09240296 -56.59765625 94.9453125 C-56.28397598 94.33861725 -55.97029572 93.731922 -55.64710999 93.10684204 C-52.71940944 87.44909325 -49.75379124 81.81188779 -46.77734375 76.1796875 C-43.14903598 69.30499909 -39.57367127 62.40321716 -36 55.5 C-31.59788163 46.99744771 -27.18396529 38.5019557 -22.70507812 30.03955078 C-20.37169505 25.6263713 -18.069424 21.19865825 -15.7890625 16.7578125 C-15.24266113 15.69788086 -14.69625977 14.63794922 -14.13330078 13.54589844 C-13.06179362 11.46566898 -11.99489869 9.38305595 -10.93310547 7.29785156 C-10.44986816 6.36166992 -9.96663086 5.42548828 -9.46875 4.4609375 C-9.04013672 3.62353027 -8.61152344 2.78612305 -8.16992188 1.92333984 C-5.92956736 -1.75978054 -3.7940511 -1.01497574 0 0 Z " fill="#FEF9F0" transform="translate(189,168)"/>
<path d="M0 0 C3.52937509 1.37764263 6.73080242 3.22031132 10 5.125 C11.43243042 5.93263794 11.43243042 5.93263794 12.89379883 6.7565918 C15.94161344 8.48371154 18.97263413 10.2373098 22 12 C22.96599121 12.56122559 23.93198242 13.12245117 24.92724609 13.70068359 C28.84277121 15.97951525 32.75500304 18.26371102 36.65942383 20.56152344 C45.51107425 25.75989655 54.47272446 30.74809536 63.47729492 35.67504883 C69.0527699 38.74115478 74.58893858 41.86863234 80.05078125 45.1328125 C81.61759644 46.06311279 81.61759644 46.06311279 83.21606445 47.01220703 C87.94210241 50.38670506 90.29024182 54.00387316 92.140625 59.44921875 C92.48867188 60.46177734 92.83671875 61.47433594 93.1953125 62.51757812 C93.54335938 63.56365234 93.89140625 64.60972656 94.25 65.6875 C94.79527344 67.27401367 94.79527344 67.27401367 95.3515625 68.89257812 C98 76.68356438 98 76.68356438 98 79 C99.54230894 77.77163932 101.08381259 76.54226753 102.625 75.3125 C103.54152344 74.58675781 104.45804687 73.86101562 105.40234375 73.11328125 C107.42214932 71.47010108 109.29932217 69.78527985 111.1875 68 C114.65011507 65.53769595 116.93333025 65.52294749 121 66 C125.04971917 66.84771168 129.01761721 67.94414353 133 69.0625 C134.14919922 69.37832031 135.29839844 69.69414062 136.48242188 70.01953125 C144.80647607 72.32845988 153.06995394 74.81366198 161.3190918 77.37548828 C168.4405002 79.57129147 175.60707731 81.53737548 182.8125 83.4375 C191.67445484 85.77556732 200.44300801 88.31787843 209.1875 91.0625 C218.24291651 93.9040786 227.32492451 96.44953755 236.52368164 98.78149414 C244.25052575 100.75812868 251.86622727 103.02497555 259.48339844 105.38598633 C266.95592514 107.69979809 274.46109314 109.87340584 282.00048828 111.95898438 C295.6466596 115.78199364 295.6466596 115.78199364 299.5 119.25 C301.47649422 122.87357274 301.64371627 124.92313029 301 129 C297.35783435 134.35578987 293.71287354 136.52689508 287.80859375 138.9609375 C286.6017971 139.48187485 286.6017971 139.48187485 285.37062073 140.01333618 C282.73229257 141.14863578 280.08509196 142.26149792 277.4375 143.375 C275.57800813 144.17138645 273.71929339 144.9695897 271.86132812 145.76953125 C268.06610031 147.40263449 264.26813703 149.02910975 260.46826172 150.65136719 C253.33505585 153.70513596 246.24888727 156.86190419 239.16641235 160.03112793 C235.50385043 161.66911432 231.83801294 163.29972376 228.171875 164.9296875 C227.43447586 165.25755249 226.69707672 165.58541748 225.93733215 165.92321777 C199.34516368 177.73598386 172.66237669 189.34677376 146 201 C146.06856201 201.7317041 146.13712402 202.4634082 146.20776367 203.21728516 C146.29775635 204.18972168 146.38774902 205.1621582 146.48046875 206.1640625 C146.56965576 207.1226416 146.65884277 208.0812207 146.75073242 209.06884766 C147.74041107 220.70653798 147.74041107 220.70653798 145.63867188 224.37817383 C141.78137475 228.21084535 137.43065108 229.47369959 132.35546875 231.23828125 C131.29047653 231.62260818 130.22548431 232.00693512 129.1282196 232.40290833 C125.75701392 233.61606398 122.37877252 234.80810678 119 236 C116.92206963 236.74616207 114.84474293 237.49400771 112.76806641 238.24365234 C107.43319482 240.16582376 102.09188537 242.06935537 96.7482605 243.96704102 C90.65065621 246.13304646 84.55586218 248.30693713 78.4609375 250.48046875 C77.82847799 250.70595272 77.19601849 250.93143669 76.54439354 251.16375351 C61.83039592 256.41004528 47.13182196 261.69888385 32.4375 267 C31.80222633 267.22913715 31.16695267 267.45827431 30.51242828 267.69435501 C10.59195908 274.8796722 -9.31102905 282.11246598 -29.20812988 289.36224365 C-48.86618182 296.52230423 -68.55978599 303.57986147 -88.2668457 310.60375977 C-104.52072263 316.39709519 -120.76466033 322.21741234 -137 328.0625 C-138.06747467 328.4465802 -139.13494934 328.8306604 -140.23477173 329.22637939 C-143.24008084 330.3078259 -146.24510113 331.39007043 -149.25 332.47265625 C-150.1244426 332.7873436 -150.99888519 333.10203094 -151.89982605 333.42625427 C-153.13277153 333.87086754 -153.13277153 333.87086754 -154.390625 334.32446289 C-155.16688232 334.60428009 -155.94313965 334.88409729 -156.74291992 335.1723938 C-158.96486008 335.9871152 -161.17130801 336.83653524 -163.37890625 337.68920898 C-167.30990976 339.11218349 -169.86324488 339.62441587 -174 339 C-176.63016161 336.8272578 -178.47336894 335.05326212 -180 332 C-180.3953582 326.69547748 -179.63677666 323.44714469 -177.140625 318.78125 C-176.52550049 317.61352051 -175.91037598 316.44579102 -175.27661133 315.24267578 C-174.60128209 313.99500465 -173.92573993 312.74744875 -173.25 311.5 C-172.55937591 310.19980666 -171.87018308 308.89885215 -171.18237305 307.59716797 C-169.79106511 304.96826756 -168.39263571 302.34337142 -166.98779297 299.72167969 C-164.21762584 294.54625578 -161.51750909 289.33468086 -158.8125 284.125 C-157.83914866 282.26009973 -156.86519363 280.39551442 -155.890625 278.53125 C-153.94187465 274.80251793 -151.99380128 271.07343487 -150.046875 267.34375 C-149.30787964 265.92872192 -149.30787964 265.92872192 -148.55395508 264.48510742 C-147.56734414 262.59312067 -146.58277259 260.7000689 -145.6003418 258.8059082 C-142.8747805 253.55676233 -140.10560618 248.33558063 -137.28515625 243.13671875 C-136.67470459 241.99831543 -136.06425293 240.85991211 -135.43530273 239.68701172 C-134.24845672 237.47466032 -133.04914781 235.26893983 -131.83618164 233.07080078 C-131.03942017 231.57589111 -131.03942017 231.57589111 -130.2265625 230.05078125 C-129.74783691 229.17075439 -129.26911133 228.29072754 -128.77587891 227.3840332 C-127.74478771 225.02815664 -127.74478771 225.02815664 -128.75244141 222.80981445 C-130.25142891 220.63525587 -131.92858908 218.78818744 -133.75 216.875 C-145.78832968 203.48698417 -150.17329239 188.90227117 -149.484375 171.171875 C-148.77291281 161.21859086 -144.48781636 153.40317659 -138 146 C-137.49984375 145.39542969 -136.9996875 144.79085937 -136.484375 144.16796875 C-131.08981133 138.15800582 -122.24594164 132.62144759 -114.06152344 131.80712891 C-101.96606915 131.36461229 -92.21618278 132.24161943 -81 137 C-80.78085938 136.22527344 -80.56171875 135.45054687 -80.3359375 134.65234375 C-78.52924291 129.71298866 -76.09092504 125.20093621 -73.625 120.5625 C-72.53373586 118.49094773 -71.44259339 116.41933137 -70.3515625 114.34765625 C-69.7937207 113.2920752 -69.23587891 112.23649414 -68.66113281 111.14892578 C-66.09002632 106.27500873 -63.54557488 101.38728519 -61 96.5 C-59.99755187 94.57804361 -58.99494734 92.65616878 -57.9921875 90.734375 C-57.49686523 89.78498047 -57.00154297 88.83558594 -56.49121094 87.85742188 C-55.01818224 85.03484035 -53.54435674 82.21267629 -52.0703125 79.390625 C-47.26045254 70.18011883 -42.46035021 60.96475198 -37.68164062 51.73803711 C-34.79094334 46.15703817 -31.8968035 40.57783183 -29 35 C-28.51724609 34.0704248 -28.03449219 33.14084961 -27.53710938 32.18310547 C-23.3064771 24.05018399 -19.04078036 15.93740343 -14.5625 7.9375 C-13.94503906 6.83277344 -13.32757813 5.72804687 -12.69140625 4.58984375 C-9.44502198 -0.38094788 -5.54809078 -0.92861997 0 0 Z M-6.56138611 7.27380371 C-8.00122358 9.00146817 -9.00320326 10.61566633 -10.01782227 12.61914062 C-10.3857338 13.33839722 -10.75364532 14.05765381 -11.13270569 14.79870605 C-11.52332687 15.57669556 -11.91394806 16.35468506 -12.31640625 17.15625 C-12.73236557 17.97258911 -13.14832489 18.78892822 -13.57688904 19.63000488 C-14.91091609 22.25058915 -16.23700939 24.87508925 -17.5625 27.5 C-19.29079037 30.9073583 -21.02218327 34.31313523 -22.75390625 37.71875 C-23.18587311 38.56949097 -23.61783997 39.42023193 -24.06289673 40.29675293 C-27.87200977 47.78443955 -31.77787187 55.21907327 -35.70288086 62.64648438 C-38.83767215 68.57919435 -41.9193648 74.53900729 -45 80.5 C-49.35370253 88.91120285 -53.72802091 97.31036781 -58.15429688 105.68359375 C-60.67755886 110.46494733 -63.17405801 115.2597105 -65.65625 120.0625 C-66.13239746 120.9833136 -66.13239746 120.9833136 -66.61816406 121.92272949 C-68.19965757 124.98176576 -69.77907365 128.04184896 -71.35546875 131.10351562 C-71.92910156 132.21404297 -72.50273438 133.32457031 -73.09375 134.46875 C-73.60615234 135.46326172 -74.11855469 136.45777344 -74.64648438 137.48242188 C-76 140 -76 140 -78 143 C-78.08024658 145.59889783 -78.08024658 145.59889783 -77 148 C-74.49048543 149.1758265 -74.49048543 149.1758265 -72 150 C-71.731875 149.26136719 -71.46375 148.52273438 -71.1875 147.76171875 C-66.22669427 134.91910656 -58.22462258 122.64724318 -45.4375 116.5 C-35.92114723 113.17965262 -24.58883854 113.80403021 -15.390625 117.7421875 C-2.85480139 124.33783325 3.51068316 134.07771136 7.75 147.34765625 C8.3294413 149.564824 8.683998 151.73087721 9 154 C9.19980469 154.91265625 9.39960938 155.8253125 9.60546875 156.765625 C10.14823736 160.87132026 10.32724214 164.17282461 7.79443359 167.65966797 C3.93226065 171.89341664 -0.51819044 175.44932091 -5 179 C-5.96421875 179.79148437 -6.9284375 180.58296875 -7.921875 181.3984375 C-9.67685523 182.83669053 -11.43988234 184.26518232 -13.2109375 185.68359375 C-17.63734163 189.35986497 -21.80801112 193.30426372 -26.015625 197.2265625 C-30.64558998 201.54228951 -35.43416182 205.66304543 -40.24609375 209.7734375 C-41.45583177 210.8071716 -42.66546433 211.84102914 -43.875 212.875 C-44.48158447 213.39344482 -45.08816895 213.91188965 -45.71313477 214.44604492 C-50.12423842 218.22572162 -54.46245695 222.07808596 -58.765625 225.98046875 C-61.50249928 228.45418205 -64.2656619 230.89309881 -67.07421875 233.28515625 C-69.05743095 235.00333883 -69.05743095 235.00333883 -70.95703125 237.05859375 C-71.61058594 237.71988281 -72.26414062 238.38117188 -72.9375 239.0625 C-73.50339844 239.67222656 -74.06929688 240.28195312 -74.65234375 240.91015625 C-78.60408736 242.74465952 -82.00315979 241.33460991 -86 240 C-89.56047035 238.59344101 -92.99768239 236.99049795 -96.4375 235.3125 C-97.35966309 234.87059326 -98.28182617 234.42868652 -99.23193359 233.97338867 C-105.02071437 231.14155198 -110.24293954 228.15087506 -115.2578125 224.08203125 C-115.83273438 223.72496094 -116.40765625 223.36789062 -117 223 C-120.66269044 224.22089681 -121.12825731 225.64835109 -122.82893372 228.96444702 C-123.17542465 229.66453888 -123.52191559 230.36463074 -123.87890625 231.0859375 C-124.24702927 231.80979645 -124.61515228 232.5336554 -124.99443054 233.27944946 C-126.19274039 235.64021926 -127.37746332 238.00754393 -128.5625 240.375 C-129.38594793 242.00185747 -130.21049464 243.62815924 -131.03613281 245.25390625 C-132.65073413 248.43414885 -134.26158208 251.61624341 -135.86962891 254.79980469 C-138.27872572 259.56046606 -140.74536892 264.28894701 -143.25 269 C-145.95740024 274.10707475 -148.63866231 279.22633752 -151.2890625 284.36328125 C-151.87518311 285.49878418 -152.46130371 286.63428711 -153.06518555 287.80419922 C-154.2633099 290.12674703 -155.46010671 292.44998018 -156.65551758 294.77392578 C-159.55242837 300.38000305 -162.49989371 305.94340745 -165.59765625 311.44140625 C-166.16049316 312.44453857 -166.72333008 313.4476709 -167.30322266 314.48120117 C-168.36703638 316.36488568 -169.442959 318.24179953 -170.53271484 320.1105957 C-171.00531738 320.9480835 -171.47791992 321.78557129 -171.96484375 322.6484375 C-172.3837085 323.37208496 -172.80257324 324.09573242 -173.23413086 324.84130859 C-174.20142144 327.56772979 -173.77267411 329.25518727 -173 332 C-168.13344899 333.63324985 -164.60409953 332.06029323 -160.06640625 330.23828125 C-158.35110616 329.57846262 -156.63507169 328.92055116 -154.91845703 328.26416016 C-153.50297577 327.71843353 -153.50297577 327.71843353 -152.05889893 327.16168213 C-146.36902891 325.0008326 -140.63286518 322.96798299 -134.90234375 320.91796875 C-133.62215631 320.45857881 -132.34204145 319.99898654 -131.06199646 319.53919983 C-128.40102132 318.58339186 -125.73987168 317.62807321 -123.07852173 316.67330933 C-118.8335322 315.15033737 -114.58896714 313.62618484 -110.34448242 312.10180664 C-108.89765944 311.58219872 -107.45083632 311.06259118 -106.00401306 310.54298401 C-105.2877519 310.28574617 -104.57149075 310.02850834 -103.8335247 309.76347542 C-101.66631046 308.98518229 -99.49906155 308.20698574 -97.33180237 307.42881775 C-84.82329937 302.93745775 -72.31708814 298.43974865 -59.8125 293.9375 C-58.33364822 293.40508194 -58.33364822 293.40508194 -56.82492065 292.86190796 C-38.07187733 286.10998959 -19.32277794 279.34713652 -0.57388306 272.58370972 C14.60773497 267.10714879 29.79017615 261.63289799 44.97607422 256.16821289 C48.96249249 254.73365421 52.94847576 253.29789705 56.93408203 251.86108398 C66.65939456 248.35603189 76.38741 244.85887082 86.12331009 241.38333702 C91.78761758 239.36116322 97.45027445 237.33441106 103.11194992 235.30488014 C106.57086757 234.0653066 110.03066894 232.82833413 113.49267578 231.59741211 C117.33892894 230.22986853 121.18127488 228.8516505 125.0234375 227.47265625 C126.17822601 227.06410904 127.33301453 226.65556183 128.52279663 226.2346344 C129.58438995 225.8517778 130.64598328 225.4689212 131.73974609 225.07446289 C132.66371185 224.74458878 133.58767761 224.41471466 134.53964233 224.07484436 C137.06786765 222.97035099 138.97536497 221.87570492 141 220 C141.3034179 216.86570448 141.3034179 216.86570448 140.8125 213.375 C140.69519531 212.20710937 140.57789063 211.03921875 140.45703125 209.8359375 C140.30621094 208.57007813 140.15539062 207.30421875 140 206 C139.82244213 204.42023798 139.64628391 202.84031811 139.47143555 201.26025391 C139.33840279 200.05920517 139.33840279 200.05920517 139.2026825 198.83389282 C139.10235466 197.92611588 139.10235466 197.92611588 139 197 C140.01682861 196.55422607 141.03365723 196.10845215 142.08129883 195.64916992 C166.34287922 185.01151413 190.58697975 174.33500568 214.8143158 163.61959839 C222.25649868 160.32816605 229.70017384 157.04011959 237.14427185 153.75302124 C241.73314761 151.72659469 246.32170997 149.69946597 250.90942383 147.67041016 C251.78191269 147.28452728 252.65440155 146.89864441 253.55332947 146.50106812 C255.27067665 145.74151083 256.98801287 144.98192877 258.70533752 144.22232056 C263.32914067 142.17795107 267.95538364 140.13929838 272.58499146 138.10810852 C274.55342199 137.24407112 276.52101753 136.37816489 278.48828125 135.51147461 C280.79524558 134.49555938 283.10373513 133.48309734 285.4140625 132.47485352 C286.89712891 131.82021118 286.89712891 131.82021118 288.41015625 131.15234375 C289.25715088 130.78101318 290.10414551 130.40968262 290.97680664 130.02709961 C293.15293958 129.0540099 293.15293958 129.0540099 295 127 C294.95257028 124.92805562 294.95257028 124.92805562 294 123 C291.30475142 121.79814523 288.80101436 120.86389816 286 120 C284.65878235 119.54708761 283.317636 119.09396402 281.9765625 118.640625 C280.52731416 118.17312013 279.07671326 117.70979361 277.625 117.25 C276.81901367 116.99468506 276.01302734 116.73937012 275.18261719 116.47631836 C267.14996971 113.97574523 259.03114711 111.82623319 250.89892578 109.67675781 C243.71542745 107.76604143 236.5978753 105.70651341 229.5 103.5 C221.37883075 100.97674736 213.22141153 98.6742576 205 96.5 C195.82557423 94.07370558 186.74547415 91.44034148 177.68359375 88.625 C169.42375889 86.08001649 161.09588865 83.83927718 152.73754883 81.64257812 C144.17140795 79.37183314 135.71032643 76.82353958 127.29492188 74.04492188 C126.40740234 73.76197266 125.51988281 73.47902344 124.60546875 73.1875 C123.83356201 72.93355469 123.06165527 72.67960937 122.26635742 72.41796875 C118.87482951 71.79249253 116.21454363 72.1639454 113.35009766 74.13574219 C112.63926025 74.83425293 112.63926025 74.83425293 111.9140625 75.546875 C111.10582031 76.3203125 111.10582031 76.3203125 110.28125 77.109375 C109.46140625 77.92148438 109.46140625 77.92148438 108.625 78.75 C104.31409564 82.95777267 99.98050503 86.59560415 95 90 C94.87850586 89.31301025 94.75701172 88.62602051 94.63183594 87.91821289 C93.48911932 82.64043404 91.6551986 77.56204876 89.92675781 72.45239258 C89.47576548 71.1096654 89.03173769 69.76457876 88.59472656 68.41723633 C87.95916109 66.45869113 87.30237559 64.50842485 86.640625 62.55859375 C86.25422852 61.39642334 85.86783203 60.23425293 85.46972656 59.03686523 C82.98927863 53.91156758 78.74136257 51.70260861 73.88671875 49.0390625 C72.89881348 48.49258057 71.9109082 47.94609863 70.89306641 47.38305664 C69.83522949 46.80289795 68.77739258 46.22273926 67.6875 45.625 C59.10426003 40.87211657 50.57981308 36.04021624 42.125 31.0625 C30.09072476 23.98831127 17.89670114 17.2211406 5.6652832 10.49536133 C3.8611371 9.48314232 2.08578172 8.41813317 0.34057617 7.30737305 C-2.3997724 5.77669957 -4.00127222 5.18522193 -6.56138611 7.27380371 Z " fill="#E45986" transform="translate(189,161)"/>
<path d="M0 0 C5.55076125 3.26294749 9.57432583 8.33615166 12.4375 14.0625 C13.27152344 14.02769531 14.10554688 13.99289062 14.96484375 13.95703125 C25.37898326 13.7065193 32.86427131 14.66209085 40.64453125 21.9609375 C49.5505413 32.39979024 49.35926911 45.08306408 48.4375 58.0625 C45.31505799 76.289285 32.65100381 91.40488718 17.921875 101.8984375 C4.17177214 110.75402323 -14.82320379 119.68398848 -31.5625 117.0625 C-38.32892347 115.17309729 -42.06855781 110.97532524 -45.5625 105.0625 C-56.48080379 84.62649117 -60.39706848 58.91408731 -54.6015625 36.30078125 C-49.67215115 20.93806694 -42.15090507 7.92149792 -27.5625 0.125 C-19.04332119 -3.44144342 -8.52682952 -3.73048792 0 0 Z " fill="#E35885" transform="translate(424.5625,1.9375)"/>
<path d="M0 0 C6.11351895 3.65306932 10.20522752 8.42352419 12.22265625 15.328125 C12.57272849 18.26078647 12.55500171 21.12912827 12.47265625 24.078125 C12.4675 24.83222656 12.46234375 25.58632812 12.45703125 26.36328125 C12.41114575 29.59247311 12.24962215 32.2472273 11.22265625 35.328125 C12.05667969 35.29332031 12.89070313 35.25851563 13.75 35.22265625 C22.63364586 35.0089603 31.03008153 35.28251018 37.87109375 41.703125 C43.05200511 47.93219762 45.02260211 54.26000952 44.640625 62.3125 C43.03145033 73.92262004 36.91684349 83.84232497 28.03515625 91.34375 C8.68582826 104.99577586 -15.87433367 108.42338521 -38.99609375 104.57421875 C-40.57265003 104.25992289 -42.14597517 103.92878576 -43.71484375 103.578125 C-44.7675647 103.34283081 -44.7675647 103.34283081 -45.84155273 103.1027832 C-51.97494845 101.56148755 -58.61806409 99.56613358 -62.21484375 94.078125 C-68.90756204 81.95320038 -65.93316006 58.64613085 -62.81640625 45.7421875 C-56.94853394 26.46203563 -47.6563524 10.83308121 -29.63671875 0.703125 C-20.08148856 -3.89173979 -9.7473692 -4.50122415 0 0 Z " fill="#E35885" transform="translate(458.77734375,140.671875)"/>
<path d="M0 0 C3.52937509 1.37764263 6.73080242 3.22031132 10 5.125 C11.43243042 5.93263794 11.43243042 5.93263794 12.89379883 6.7565918 C15.94161344 8.48371154 18.97263413 10.2373098 22 12 C22.96599121 12.56122559 23.93198242 13.12245117 24.92724609 13.70068359 C28.84277121 15.97951525 32.75500304 18.26371102 36.65942383 20.56152344 C45.51107425 25.75989655 54.47272446 30.74809536 63.47729492 35.67504883 C69.0527699 38.74115478 74.58893858 41.86863234 80.05078125 45.1328125 C81.61759644 46.06311279 81.61759644 46.06311279 83.21606445 47.01220703 C87.94210241 50.38670506 90.29024182 54.00387316 92.140625 59.44921875 C92.48867188 60.46177734 92.83671875 61.47433594 93.1953125 62.51757812 C93.54335938 63.56365234 93.89140625 64.60972656 94.25 65.6875 C94.79527344 67.27401367 94.79527344 67.27401367 95.3515625 68.89257812 C98 76.68356438 98 76.68356438 98 79 C99.54230894 77.77163932 101.08381259 76.54226753 102.625 75.3125 C103.54152344 74.58675781 104.45804687 73.86101562 105.40234375 73.11328125 C107.42214932 71.47010108 109.29932217 69.78527985 111.1875 68 C114.65011507 65.53769595 116.93333025 65.52294749 121 66 C125.04971917 66.84771168 129.01761721 67.94414353 133 69.0625 C134.14919922 69.37832031 135.29839844 69.69414062 136.48242188 70.01953125 C144.80647607 72.32845988 153.06995394 74.81366198 161.3190918 77.37548828 C168.4405002 79.57129147 175.60707731 81.53737548 182.8125 83.4375 C191.67445484 85.77556732 200.44300801 88.31787843 209.1875 91.0625 C218.24291651 93.9040786 227.32492451 96.44953755 236.52368164 98.78149414 C244.25052575 100.75812868 251.86622727 103.02497555 259.48339844 105.38598633 C266.95592514 107.69979809 274.46109314 109.87340584 282.00048828 111.95898438 C295.6466596 115.78199364 295.6466596 115.78199364 299.5 119.25 C301.47649422 122.87357274 301.64371627 124.92313029 301 129 C297.35783435 134.35578987 293.71287354 136.52689508 287.80859375 138.9609375 C286.6017971 139.48187485 286.6017971 139.48187485 285.37062073 140.01333618 C282.73229257 141.14863578 280.08509196 142.26149792 277.4375 143.375 C275.57800813 144.17138645 273.71929339 144.9695897 271.86132812 145.76953125 C268.06610031 147.40263449 264.26813703 149.02910975 260.46826172 150.65136719 C253.33505585 153.70513596 246.24888727 156.86190419 239.16641235 160.03112793 C235.50385043 161.66911432 231.83801294 163.29972376 228.171875 164.9296875 C227.43447586 165.25755249 226.69707672 165.58541748 225.93733215 165.92321777 C199.34516368 177.73598386 172.66237669 189.34677376 146 201 C146.06856201 201.7317041 146.13712402 202.4634082 146.20776367 203.21728516 C146.29775635 204.18972168 146.38774902 205.1621582 146.48046875 206.1640625 C146.56965576 207.1226416 146.65884277 208.0812207 146.75073242 209.06884766 C147.74041107 220.70653798 147.74041107 220.70653798 145.63867188 224.37817383 C141.78137475 228.21084535 137.43065108 229.47369959 132.35546875 231.23828125 C131.29047653 231.62260818 130.22548431 232.00693512 129.1282196 232.40290833 C125.75701392 233.61606398 122.37877252 234.80810678 119 236 C116.92206963 236.74616207 114.84474293 237.49400771 112.76806641 238.24365234 C107.43319482 240.16582376 102.09188537 242.06935537 96.7482605 243.96704102 C90.65065621 246.13304646 84.55586218 248.30693713 78.4609375 250.48046875 C77.82847799 250.70595272 77.19601849 250.93143669 76.54439354 251.16375351 C61.83039592 256.41004528 47.13182196 261.69888385 32.4375 267 C31.80222633 267.22913715 31.16695267 267.45827431 30.51242828 267.69435501 C10.59195908 274.8796722 -9.31102905 282.11246598 -29.20812988 289.36224365 C-48.86618182 296.52230423 -68.55978599 303.57986147 -88.2668457 310.60375977 C-104.52072263 316.39709519 -120.76466033 322.21741234 -137 328.0625 C-138.06747467 328.4465802 -139.13494934 328.8306604 -140.23477173 329.22637939 C-143.24008084 330.3078259 -146.24510113 331.39007043 -149.25 332.47265625 C-150.1244426 332.7873436 -150.99888519 333.10203094 -151.89982605 333.42625427 C-153.13277153 333.87086754 -153.13277153 333.87086754 -154.390625 334.32446289 C-155.16688232 334.60428009 -155.94313965 334.88409729 -156.74291992 335.1723938 C-158.96486008 335.9871152 -161.17130801 336.83653524 -163.37890625 337.68920898 C-167.30990976 339.11218349 -169.86324488 339.62441587 -174 339 C-176.63016161 336.8272578 -178.47336894 335.05326212 -180 332 C-180.3953582 326.69547748 -179.63677666 323.44714469 -177.140625 318.78125 C-176.52550049 317.61352051 -175.91037598 316.44579102 -175.27661133 315.24267578 C-174.60128209 313.99500465 -173.92573993 312.74744875 -173.25 311.5 C-172.55937591 310.19980666 -171.87018308 308.89885215 -171.18237305 307.59716797 C-169.79106511 304.96826756 -168.39263571 302.34337142 -166.98779297 299.72167969 C-164.21762584 294.54625578 -161.51750909 289.33468086 -158.8125 284.125 C-157.83914866 282.26009973 -156.86519363 280.39551442 -155.890625 278.53125 C-153.94187465 274.80251793 -151.99380128 271.07343487 -150.046875 267.34375 C-149.30787964 265.92872192 -149.30787964 265.92872192 -148.55395508 264.48510742 C-147.56734414 262.59312067 -146.58277259 260.7000689 -145.6003418 258.8059082 C-142.8747805 253.55676233 -140.10560618 248.33558063 -137.28515625 243.13671875 C-136.67470459 241.99831543 -136.06425293 240.85991211 -135.43530273 239.68701172 C-134.24845672 237.47466032 -133.04914781 235.26893983 -131.83618164 233.07080078 C-131.03942017 231.57589111 -131.03942017 231.57589111 -130.2265625 230.05078125 C-129.74783691 229.17075439 -129.26911133 228.29072754 -128.77587891 227.3840332 C-127.74478771 225.02815664 -127.74478771 225.02815664 -128.75244141 222.80981445 C-130.25142891 220.63525587 -131.92858908 218.78818744 -133.75 216.875 C-145.78832968 203.48698417 -150.17329239 188.90227117 -149.484375 171.171875 C-148.77291281 161.21859086 -144.48781636 153.40317659 -138 146 C-137.49984375 145.39542969 -136.9996875 144.79085937 -136.484375 144.16796875 C-131.08981133 138.15800582 -122.24594164 132.62144759 -114.06152344 131.80712891 C-101.96606915 131.36461229 -92.21618278 132.24161943 -81 137 C-80.78085938 136.22527344 -80.56171875 135.45054687 -80.3359375 134.65234375 C-78.52924291 129.71298866 -76.09092504 125.20093621 -73.625 120.5625 C-72.53373586 118.49094773 -71.44259339 116.41933137 -70.3515625 114.34765625 C-69.7937207 113.2920752 -69.23587891 112.23649414 -68.66113281 111.14892578 C-66.09002632 106.27500873 -63.54557488 101.38728519 -61 96.5 C-59.99755187 94.57804361 -58.99494734 92.65616878 -57.9921875 90.734375 C-57.49686523 89.78498047 -57.00154297 88.83558594 -56.49121094 87.85742188 C-55.01818224 85.03484035 -53.54435674 82.21267629 -52.0703125 79.390625 C-47.26045254 70.18011883 -42.46035021 60.96475198 -37.68164062 51.73803711 C-34.79094334 46.15703817 -31.8968035 40.57783183 -29 35 C-28.51724609 34.0704248 -28.03449219 33.14084961 -27.53710938 32.18310547 C-23.3064771 24.05018399 -19.04078036 15.93740343 -14.5625 7.9375 C-13.94503906 6.83277344 -13.32757813 5.72804687 -12.69140625 4.58984375 C-9.44502198 -0.38094788 -5.54809078 -0.92861997 0 0 Z M-6.56138611 7.27380371 C-8.00122358 9.00146817 -9.00320326 10.61566633 -10.01782227 12.61914062 C-10.3857338 13.33839722 -10.75364532 14.05765381 -11.13270569 14.79870605 C-11.52332687 15.57669556 -11.91394806 16.35468506 -12.31640625 17.15625 C-12.73236557 17.97258911 -13.14832489 18.78892822 -13.57688904 19.63000488 C-14.91091609 22.25058915 -16.23700939 24.87508925 -17.5625 27.5 C-19.29079037 30.9073583 -21.02218327 34.31313523 -22.75390625 37.71875 C-23.18587311 38.56949097 -23.61783997 39.42023193 -24.06289673 40.29675293 C-27.87200977 47.78443955 -31.77787187 55.21907327 -35.70288086 62.64648438 C-38.83767215 68.57919435 -41.9193648 74.53900729 -45 80.5 C-49.35459476 88.91292659 -53.72530079 97.31629702 -58.15869141 105.68798828 C-60.66909488 110.43853893 -63.13758578 115.20940141 -65.5859375 119.9921875 C-66.53553355 121.84201896 -67.48550669 123.69165637 -68.43554688 125.54125977 C-69.3543375 127.33466839 -70.2670839 129.13116949 -71.1796875 130.92773438 C-72.03046875 132.58385742 -72.03046875 132.58385742 -72.8984375 134.2734375 C-73.40036621 135.25747559 -73.90229492 136.24151367 -74.41943359 137.25537109 C-76.04863682 140.08445709 -77.89825883 142.50734292 -80 145 C-80.66644531 144.66226563 -81.33289063 144.32453125 -82.01953125 143.9765625 C-93.9551756 138.20071223 -105.4546951 136.15639273 -118.26171875 139.96484375 C-128.13757579 143.69822765 -135.87812846 151.3612469 -140.22265625 160.9453125 C-144.85179079 173.18111536 -143.57618728 184.90965905 -139 197 C-134.68691227 206.17369178 -128.54120069 215.30586621 -120 221 C-120.61522349 225.4713659 -122.38627738 229.09404878 -124.46484375 233.0390625 C-124.8135553 233.71277893 -125.16226685 234.38649536 -125.52154541 235.08062744 C-126.65421828 237.26525167 -127.79571421 239.44512689 -128.9375 241.625 C-129.72422095 243.13792019 -130.51043293 244.65110515 -131.29614258 246.16455078 C-133.52219036 250.44753776 -135.75894467 254.72484989 -138 259 C-138.51369141 259.98033203 -139.02738281 260.96066406 -139.55664062 261.97070312 C-141.14203593 264.99174876 -142.73027748 268.01122678 -144.32641602 271.02661133 C-146.67320787 275.46228957 -148.99199904 279.91144856 -151.29296875 284.37109375 C-151.87852539 285.50546875 -152.46408203 286.63984375 -153.06738281 287.80859375 C-154.26470943 290.12950565 -155.46069116 292.45111189 -156.65527344 294.7734375 C-159.55225747 300.37968228 -162.49980419 305.94324857 -165.59765625 311.44140625 C-166.16049316 312.44453857 -166.72333008 313.4476709 -167.30322266 314.48120117 C-168.36703638 316.36488568 -169.442959 318.24179953 -170.53271484 320.1105957 C-171.00531738 320.9480835 -171.47791992 321.78557129 -171.96484375 322.6484375 C-172.3837085 323.37208496 -172.80257324 324.09573242 -173.23413086 324.84130859 C-174.20142144 327.56772979 -173.77267411 329.25518727 -173 332 C-168.13344899 333.63324985 -164.60409953 332.06029323 -160.06640625 330.23828125 C-158.35110616 329.57846262 -156.63507169 328.92055116 -154.91845703 328.26416016 C-153.50297577 327.71843353 -153.50297577 327.71843353 -152.05889893 327.16168213 C-146.36902891 325.0008326 -140.63286518 322.96798299 -134.90234375 320.91796875 C-133.62215631 320.45857881 -132.34204145 319.99898654 -131.06199646 319.53919983 C-128.40102132 318.58339186 -125.73987168 317.62807321 -123.07852173 316.67330933 C-118.8335322 315.15033737 -114.58896714 313.62618484 -110.34448242 312.10180664 C-108.89765944 311.58219872 -107.45083632 311.06259118 -106.00401306 310.54298401 C-105.2877519 310.28574617 -104.57149075 310.02850834 -103.8335247 309.76347542 C-101.66631046 308.98518229 -99.49906155 308.20698574 -97.33180237 307.42881775 C-84.82329937 302.93745775 -72.31708814 298.43974865 -59.8125 293.9375 C-58.33364822 293.40508194 -58.33364822 293.40508194 -56.82492065 292.86190796 C-38.07187733 286.10998959 -19.32277794 279.34713652 -0.57388306 272.58370972 C14.60773497 267.10714879 29.79017615 261.63289799 44.97607422 256.16821289 C48.96249249 254.73365421 52.94847576 253.29789705 56.93408203 251.86108398 C66.65939456 248.35603189 76.38741 244.85887082 86.12331009 241.38333702 C91.78761758 239.36116322 97.45027445 237.33441106 103.11194992 235.30488014 C106.57086757 234.0653066 110.03066894 232.82833413 113.49267578 231.59741211 C117.33892894 230.22986853 121.18127488 228.8516505 125.0234375 227.47265625 C126.17822601 227.06410904 127.33301453 226.65556183 128.52279663 226.2346344 C129.58438995 225.8517778 130.64598328 225.4689212 131.73974609 225.07446289 C132.66371185 224.74458878 133.58767761 224.41471466 134.53964233 224.07484436 C137.06786765 222.97035099 138.97536497 221.87570492 141 220 C141.3034179 216.86570448 141.3034179 216.86570448 140.8125 213.375 C140.69519531 212.20710937 140.57789063 211.03921875 140.45703125 209.8359375 C140.30621094 208.57007813 140.15539062 207.30421875 140 206 C139.82244213 204.42023798 139.64628391 202.84031811 139.47143555 201.26025391 C139.33840279 200.05920517 139.33840279 200.05920517 139.2026825 198.83389282 C139.10235466 197.92611588 139.10235466 197.92611588 139 197 C140.01682861 196.55422607 141.03365723 196.10845215 142.08129883 195.64916992 C166.34287922 185.01151413 190.58697975 174.33500568 214.8143158 163.61959839 C222.25649868 160.32816605 229.70017384 157.04011959 237.14427185 153.75302124 C241.73314761 151.72659469 246.32170997 149.69946597 250.90942383 147.67041016 C251.78191269 147.28452728 252.65440155 146.89864441 253.55332947 146.50106812 C255.27067665 145.74151083 256.98801287 144.98192877 258.70533752 144.22232056 C263.32914067 142.17795107 267.95538364 140.13929838 272.58499146 138.10810852 C274.55342199 137.24407112 276.52101753 136.37816489 278.48828125 135.51147461 C280.79524558 134.49555938 283.10373513 133.48309734 285.4140625 132.47485352 C286.89712891 131.82021118 286.89712891 131.82021118 288.41015625 131.15234375 C289.25715088 130.78101318 290.10414551 130.40968262 290.97680664 130.02709961 C293.15293958 129.0540099 293.15293958 129.0540099 295 127 C294.95257028 124.92805562 294.95257028 124.92805562 294 123 C291.30475142 121.79814523 288.80101436 120.86389816 286 120 C284.65878235 119.54708761 283.317636 119.09396402 281.9765625 118.640625 C280.52731416 118.17312013 279.07671326 117.70979361 277.625 117.25 C276.81901367 116.99468506 276.01302734 116.73937012 275.18261719 116.47631836 C267.14996971 113.97574523 259.03114711 111.82623319 250.89892578 109.67675781 C243.71542745 107.76604143 236.5978753 105.70651341 229.5 103.5 C221.37883075 100.97674736 213.22141153 98.6742576 205 96.5 C195.82557423 94.07370558 186.74547415 91.44034148 177.68359375 88.625 C169.42375889 86.08001649 161.09588865 83.83927718 152.73754883 81.64257812 C144.17140795 79.37183314 135.71032643 76.82353958 127.29492188 74.04492188 C126.40740234 73.76197266 125.51988281 73.47902344 124.60546875 73.1875 C123.83356201 72.93355469 123.06165527 72.67960937 122.26635742 72.41796875 C118.87482951 71.79249253 116.21454363 72.1639454 113.35009766 74.13574219 C112.63926025 74.83425293 112.63926025 74.83425293 111.9140625 75.546875 C111.10582031 76.3203125 111.10582031 76.3203125 110.28125 77.109375 C109.46140625 77.92148438 109.46140625 77.92148438 108.625 78.75 C104.31409564 82.95777267 99.98050503 86.59560415 95 90 C94.87850586 89.31301025 94.75701172 88.62602051 94.63183594 87.91821289 C93.48911932 82.64043404 91.6551986 77.56204876 89.92675781 72.45239258 C89.47576548 71.1096654 89.03173769 69.76457876 88.59472656 68.41723633 C87.95916109 66.45869113 87.30237559 64.50842485 86.640625 62.55859375 C86.25422852 61.39642334 85.86783203 60.23425293 85.46972656 59.03686523 C82.98927863 53.91156758 78.74136257 51.70260861 73.88671875 49.0390625 C72.89881348 48.49258057 71.9109082 47.94609863 70.89306641 47.38305664 C69.83522949 46.80289795 68.77739258 46.22273926 67.6875 45.625 C59.10426003 40.87211657 50.57981308 36.04021624 42.125 31.0625 C30.09072476 23.98831127 17.89670114 17.2211406 5.6652832 10.49536133 C3.8611371 9.48314232 2.08578172 8.41813317 0.34057617 7.30737305 C-2.3997724 5.77669957 -4.00127222 5.18522193 -6.56138611 7.27380371 Z " fill="#522626" transform="translate(189,161)"/>
<path d="M0 0 C4.98564315 2.86044981 7.89447788 6.33580026 10 11.75 C10.3403125 13.049375 10.3403125 13.049375 10.6875 14.375 C11.739375 13.88 12.79125 13.385 13.875 12.875 C20.13834949 10.54574725 27.52866285 10.03204217 33.9375 12.1015625 C39.6394995 15.12460534 43.07793976 19.83897864 45.14453125 25.87890625 C47.46993308 36.56906286 45.7083657 45.77640109 40.109375 54.96484375 C29.12840212 71.41157116 13.84958997 78.32097001 -4.3125 84.375 C-9.19100676 84.9627719 -13.05764325 85.05262265 -17.4375 82.6875 C-29.12893917 70.96294061 -36.09241736 51.98921845 -36.5625 35.75 C-36.42324971 23.4031411 -33.31103673 13.59315284 -24.9375 4.5625 C-17.95966208 -2.01017314 -8.86079181 -3.99571555 0 0 Z " fill="#E35885" transform="translate(302.3125,119.625)"/>
<path d="M0 0 C1.95086441 3.64634112 2.57168325 6.8227556 3.125 10.9375 C3.29257812 12.14277344 3.46015625 13.34804688 3.6328125 14.58984375 C3.75398438 15.71519531 3.87515625 16.84054687 4 18 C4.10054688 18.90878906 4.20109375 19.81757813 4.3046875 20.75390625 C4 23 4 23 2.27607727 24.52418518 C-0.03521238 26.0228318 -2.12722962 26.94690368 -4.72192383 27.85913086 C-6.14025261 28.36379128 -6.14025261 28.36379128 -7.5872345 28.87864685 C-8.61676743 29.23709183 -9.64630035 29.5955368 -10.70703125 29.96484375 C-11.79396774 30.34983536 -12.88090424 30.73482697 -14.0007782 31.13148499 C-16.36127864 31.96686888 -18.72288399 32.79913567 -21.08544922 33.62866211 C-26.81679048 35.64135178 -32.54146669 37.67277827 -38.26652145 39.70326614 C-40.2526433 40.40743574 -42.23905571 41.11078114 -44.22549438 41.8140564 C-57.34628838 46.4624172 -70.42484661 51.22492906 -83.5 56 C-103.14100137 63.16608112 -122.81436346 70.23630136 -142.51025391 77.25 C-159.8653281 83.43185473 -177.19205985 89.68743774 -194.5 96 C-216.18796345 103.90982903 -237.91147137 111.71490477 -259.65625 119.46679688 C-260.77409882 119.86532867 -261.89194763 120.26386047 -263.04367065 120.67446899 C-265.18749391 121.43785407 -267.3317848 122.19992744 -269.47659302 122.96054077 C-273.85601188 124.51452525 -278.23040229 126.07582659 -282.58154297 127.70751953 C-283.24177963 127.95264786 -283.9020163 128.19777618 -284.58226013 128.45033264 C-286.23710685 129.06730172 -287.88818619 129.69435217 -289.53881836 130.32250977 C-292 131 -292 131 -295 130 C-293.98317139 129.55422607 -292.96634277 129.10845215 -291.91870117 128.64916992 C-271.20282199 119.56616984 -250.49708811 110.46080824 -229.81085205 101.31048584 C-216.57148516 95.45469838 -203.32095236 89.62493394 -190.0625 83.8125 C-177.21410926 78.17941508 -164.37916152 72.51741888 -151.5625 66.8125 C-150.82633453 66.48482635 -150.09016907 66.15715271 -149.33169556 65.81954956 C-148.59937714 65.49358795 -147.86705872 65.16762634 -147.11254883 64.83178711 C-136.9986822 60.33031306 -126.87849922 55.8434598 -116.75 51.375 C-116.04777313 51.06518188 -115.34554626 50.75536377 -114.62203979 50.43615723 C-103.80988783 45.66741293 -92.98415062 40.93018183 -82.1541748 36.2020874 C-70.66233946 31.18333029 -59.20065947 26.09835782 -47.74578857 20.99588013 C-31.86318096 13.92232968 -15.93857012 6.94640117 0 0 Z " fill="#CADBF4" transform="translate(326,358)"/>
<path d="M0 0 C2.80400733 1.0904473 4.58854735 2.19272989 5.9765625 4.91601562 C6.27304687 5.69654297 6.56953125 6.47707031 6.875 7.28125 C7.21563477 8.17569824 7.55626953 9.07014648 7.90722656 9.99169922 C9.91400677 15.51617323 11.84676706 21.06408813 13.75 26.625 C14.16121094 27.81996094 14.57242188 29.01492187 14.99609375 30.24609375 C15.99961551 33.16330816 17.00086769 36.08127994 18 39 C10.3637922 46.03803819 2.68888341 53.00406051 -5.21484375 59.7421875 C-6.41421409 60.76544735 -7.61342817 61.78889037 -8.8125 62.8125 C-9.41860107 63.32973633 -10.02470215 63.84697266 -10.64916992 64.37988281 C-14.39051541 67.5848938 -18.0610693 70.85201503 -21.6875 74.1875 C-25.14015696 77.35830742 -28.65530966 80.38035031 -32.3125 83.3125 C-36.72367963 86.86787302 -40.8780109 90.61955991 -45 94.5 C-50.79482953 99.95302637 -56.75908627 105.05800815 -63 110 C-64.66689282 111.33305059 -66.33362316 112.66630446 -68 114 C-68.08636719 112.86304688 -68.17273438 111.72609375 -68.26171875 110.5546875 C-69.15588732 100.29516228 -70.99310732 91.51254675 -75 82 C-73.82244141 80.83984375 -73.82244141 80.83984375 -72.62109375 79.65625 C-67.5889269 74.67625075 -62.62455336 69.70903446 -58.03125 64.31640625 C-55.13705043 61.01590558 -52.12797689 57.82641323 -49.125 54.625 C-44.44916332 49.63658449 -39.82288834 44.61300844 -35.265625 39.515625 C-32.57620734 36.52944401 -29.85365044 33.57530188 -27.125 30.625 C-26.36425171 29.80237671 -26.36425171 29.80237671 -25.58813477 28.96313477 C-25.08080811 28.41455811 -24.57348145 27.86598145 -24.05078125 27.30078125 C-19.34929851 22.21684552 -14.66873154 17.1140353 -10 12 C-9.12472656 11.04222656 -8.24945313 10.08445313 -7.34765625 9.09765625 C-6.53167969 8.19917969 -5.71570313 7.30070313 -4.875 6.375 C-4.15054688 5.57835937 -3.42609375 4.78171875 -2.6796875 3.9609375 C-0.95000675 2.10186119 -0.95000675 2.10186119 0 0 Z " fill="#CBDCF6" transform="translate(267,213)"/>
<path d="M0 0 C5.55076125 3.26294749 9.57432583 8.33615166 12.4375 14.0625 C13.27152344 14.02769531 14.10554688 13.99289062 14.96484375 13.95703125 C25.37898326 13.7065193 32.86427131 14.66209085 40.64453125 21.9609375 C49.5505413 32.39979024 49.35926911 45.08306408 48.4375 58.0625 C45.31505799 76.289285 32.65100381 91.40488718 17.921875 101.8984375 C4.17177214 110.75402323 -14.82320379 119.68398848 -31.5625 117.0625 C-38.32892347 115.17309729 -42.06855781 110.97532524 -45.5625 105.0625 C-56.48080379 84.62649117 -60.39706848 58.91408731 -54.6015625 36.30078125 C-49.67215115 20.93806694 -42.15090507 7.92149792 -27.5625 0.125 C-19.04332119 -3.44144342 -8.52682952 -3.73048792 0 0 Z M-36.5625 20.0625 C-43.91217932 31.12104528 -47.28910668 42.59014863 -47.0625 55.8125 C-47.05114014 56.94703613 -47.03978027 58.08157227 -47.02807617 59.25048828 C-46.81775816 68.3963916 -45.5939492 76.42237607 -42.5625 85.0625 C-41.98435547 86.73892578 -41.98435547 86.73892578 -41.39453125 88.44921875 C-38.11586954 97.4682169 -38.11586954 97.4682169 -31.5625 104.0625 C-18.7458098 107.11499574 -2.84006378 100.03990782 8.05859375 93.6171875 C12.07196314 90.99432868 15.81256811 88.20108145 19.4375 85.0625 C20.18902344 84.41796875 20.94054687 83.7734375 21.71484375 83.109375 C31.89243753 73.71467305 39.28707622 60.57659014 39.9375 46.625 C39.75351618 39.47471981 37.80638031 33.62906522 32.83984375 28.37109375 C26.77020168 23.13658671 21.1836682 23.52144052 13.4375 24.0625 C10.52414793 24.80486527 8.17117864 25.77606299 5.4375 27.0625 C5.39625 25.9075 5.355 24.7525 5.3125 23.5625 C4.57624035 17.55504804 0.99449766 13.18257379 -3.57421875 9.39453125 C-15.29901581 1.53960827 -29.13024449 10.67607386 -36.5625 20.0625 Z " fill="#FBFAFB" transform="translate(424.5625,1.9375)"/>
<path d="M0 0 C3.62278401 1.32321544 6.57341088 2.94994694 9.75 5.125 C14.56762385 8.24959186 19.49835419 10.81865055 24.6875 13.25 C25.7379248 13.74330811 25.7379248 13.74330811 26.80957031 14.24658203 C31.46680036 16.3912726 36.18156772 18.24784281 41 20 C32.70518769 28.3866368 24.0224963 36.26295917 14.82421875 43.6484375 C10.38967742 47.34082184 6.20412576 51.2929072 1.984375 55.2265625 C-2.63353761 59.53105514 -7.40761607 63.64312405 -12.2109375 67.73828125 C-19.59404649 74.03776169 -26.83854889 80.44851476 -34 87 C-35.49439664 88.36034777 -36.99384828 89.71517882 -38.5 91.0625 C-39.1084375 91.61035156 -39.716875 92.15820312 -40.34375 92.72265625 C-42 94 -42 94 -45 95 C-45.268125 95.556875 -45.53625 96.11375 -45.8125 96.6875 C-47.28152614 99.54823512 -49.2387855 101.34505533 -51.5625 103.53515625 C-53.23115578 105.14429168 -53.23115578 105.14429168 -55 108 C-54.42835084 104.60493994 -53.6012304 101.84369938 -52.02563477 98.78662109 C-51.61753067 97.98743256 -51.20942657 97.18824402 -50.78895569 96.36483765 C-50.34426437 95.5096756 -49.89957306 94.65451355 -49.44140625 93.7734375 C-48.97822495 92.8711441 -48.51504364 91.96885071 -48.03782654 91.03921509 C-46.55181323 88.14813485 -45.05720549 85.26159416 -43.5625 82.375 C-42.59125043 80.48726022 -41.62054213 78.59924184 -40.65039062 76.7109375 C-35.64405251 66.98017105 -30.58282129 57.27922588 -25.4752655 47.60124207 C-22.46591564 41.89655518 -19.49843748 36.17184999 -16.54736328 30.43676758 C-11.25529488 20.15470359 -5.91576269 9.9392162 0 0 Z " fill="#FDF7EF" transform="translate(70,384)"/>
<path d="M0 0 C6.11351895 3.65306932 10.20522752 8.42352419 12.22265625 15.328125 C12.57272849 18.26078647 12.55500171 21.12912827 12.47265625 24.078125 C12.4675 24.83222656 12.46234375 25.58632812 12.45703125 26.36328125 C12.41114575 29.59247311 12.24962215 32.2472273 11.22265625 35.328125 C12.05667969 35.29332031 12.89070313 35.25851563 13.75 35.22265625 C22.63364586 35.0089603 31.03008153 35.28251018 37.87109375 41.703125 C43.05200511 47.93219762 45.02260211 54.26000952 44.640625 62.3125 C43.03145033 73.92262004 36.91684349 83.84232497 28.03515625 91.34375 C8.68582826 104.99577586 -15.87433367 108.42338521 -38.99609375 104.57421875 C-40.57265003 104.25992289 -42.14597517 103.92878576 -43.71484375 103.578125 C-44.7675647 103.34283081 -44.7675647 103.34283081 -45.84155273 103.1027832 C-51.97494845 101.56148755 -58.61806409 99.56613358 -62.21484375 94.078125 C-68.90756204 81.95320038 -65.93316006 58.64613085 -62.81640625 45.7421875 C-56.94853394 26.46203563 -47.6563524 10.83308121 -29.63671875 0.703125 C-20.08148856 -3.89173979 -9.7473692 -4.50122415 0 0 Z M-42.33984375 18.765625 C-49.64657281 27.52007427 -54.6252747 39.21179841 -56.77734375 50.328125 C-56.97972656 51.30652344 -57.18210937 52.28492188 -57.390625 53.29296875 C-59.43756734 64.55811403 -61.00876836 79.42145837 -56.77734375 90.328125 C-54.31721393 93.80912501 -50.94683468 94.37599433 -46.96484375 95.453125 C-45.76214844 95.78570312 -44.55945313 96.11828125 -43.3203125 96.4609375 C-24.23042952 101.13343366 -0.66752795 100.5123734 16.84765625 90.8671875 C26.7672716 84.43901571 33.93793686 77.84597222 37.22265625 66.328125 C37.82011857 60.66612742 38.28520619 54.50411204 35.72265625 49.265625 C31.54321933 44.35478662 26.54850181 42.24841044 20.22265625 41.328125 C17.4419014 41.260036 14.68900886 41.23334164 11.91015625 41.265625 C11.16958984 41.27013672 10.42902344 41.27464844 9.66601562 41.27929688 C7.85152726 41.29100325 6.03708091 41.30893602 4.22265625 41.328125 C4.38765625 40.173125 4.55265625 39.018125 4.72265625 37.828125 C5.21529913 33.27117832 5.40108456 28.72121332 5.47265625 24.140625 C5.49392578 23.46386719 5.51519531 22.78710938 5.53710938 22.08984375 C5.57414819 16.69275994 4.37232078 12.74148171 0.7578125 8.68359375 C-13.70334709 -2.78560179 -31.37195419 7.52477891 -42.33984375 18.765625 Z " fill="#552326" transform="translate(458.77734375,140.671875)"/>
<path d="M0 0 C4.93382545 3.4761043 9.18206405 7.97934338 10.75 13.9375 C10.875 16.75 10.875 16.75 10.75 18.9375 C12.3278125 18.195 12.3278125 18.195 13.9375 17.4375 C19.7511175 15.2716425 25.63376556 15.2198193 31.75 15.9375 C37.67629267 18.74469126 41.81135397 23.60330853 44.203125 29.7421875 C47.27195258 42.06133821 42.82282184 53.04860464 36.625 63.5625 C24.86551667 80.97363157 6.77998871 90.90177567 -13.25 95.9375 C-23.70887161 97.32955241 -23.70887161 97.32955241 -28.2109375 94.86328125 C-41.16091356 81.26238046 -42.07537544 58.71949703 -41.66015625 41.19140625 C-40.97492885 26.8445919 -35.23146139 15.33973926 -24.75 5.5 C-17.22892697 -0.7781301 -9.46937672 -3.09575777 0 0 Z M-26.6484375 16.57421875 C-35.95753856 30.3108191 -36.9069877 47.10747355 -34.0625 63 C-32.19214465 72.56883033 -29.26867848 82.13550938 -23.25 89.9375 C-5.81730573 89.87257376 11.01483292 81.09407503 23.49609375 69.25390625 C33.5077992 58.96457985 38.16003854 48.43804716 38.03125 34.078125 C37.562559 28.84440889 35.36765385 26.41241969 31.625 23 C26.38234656 21.06249764 21.25544288 21.79831245 16.20703125 24.09375 C14.67168535 24.95534705 13.15358042 25.84887629 11.66015625 26.78125 C9.75 27.9375 9.75 27.9375 6.75 28.9375 C6.57984375 27.92429687 6.4096875 26.91109375 6.234375 25.8671875 C5.99031887 24.51549199 5.74548568 23.16393662 5.5 21.8125 C5.39042969 21.14734375 5.28085937 20.4821875 5.16796875 19.796875 C4.2866887 15.06579263 2.78817921 11.78662178 -0.25 7.9375 C-10.22672657 1.28634895 -20.15499743 8.70203456 -26.6484375 16.57421875 Z " fill="#542325" transform="translate(419.25,10.0625)"/>
<path d="M0 0 C4.98564315 2.86044981 7.89447788 6.33580026 10 11.75 C10.3403125 13.049375 10.3403125 13.049375 10.6875 14.375 C11.739375 13.88 12.79125 13.385 13.875 12.875 C20.13834949 10.54574725 27.52866285 10.03204217 33.9375 12.1015625 C39.6394995 15.12460534 43.07793976 19.83897864 45.14453125 25.87890625 C47.46993308 36.56906286 45.7083657 45.77640109 40.109375 54.96484375 C29.12840212 71.41157116 13.84958997 78.32097001 -4.3125 84.375 C-9.19100676 84.9627719 -13.05764325 85.05262265 -17.4375 82.6875 C-29.12893917 70.96294061 -36.09241736 51.98921845 -36.5625 35.75 C-36.42324971 23.4031411 -33.31103673 13.59315284 -24.9375 4.5625 C-17.95966208 -2.01017314 -8.86079181 -3.99571555 0 0 Z M-20.33984375 9.1484375 C-29.25913836 18.99171824 -30.15600617 29.2332551 -29.54345703 42.02246094 C-28.59978343 51.63476411 -24.12406325 61.12454169 -19.3125 69.375 C-18.87292969 70.16261719 -18.43335938 70.95023437 -17.98046875 71.76171875 C-15.42616242 75.79509857 -15.42616242 75.79509857 -11.3515625 78.0078125 C1.79083909 78.7194949 16.48657706 70.24143161 26.125 62.0625 C33.55867683 54.99144155 38.70916025 46.07052455 39.65234375 35.78125 C39.73026378 30.44805658 38.67482079 25.9751406 35.875 21.4375 C31.97781364 17.76301 28.23858133 16.86885748 22.87109375 16.98046875 C19.40660854 17.60643119 16.71901338 19.31087937 13.7421875 21.12890625 C11.47805118 22.50202314 9.1809692 23.49022061 6.6875 24.375 C6.605 23.385 6.5225 22.395 6.4375 21.375 C5.60695168 15.68805108 3.31563521 11.04598087 -0.6875 6.9375 C-7.35495886 2.96877449 -14.54449563 4.07890369 -20.33984375 9.1484375 Z " fill="#542225" transform="translate(302.3125,119.625)"/>
<path d="M0 0 C0.33 0 0.66 0 1 0 C0.97138669 6.18047555 -0.26701226 10.21066529 -3.94140625 15.17578125 C-9.80634819 20.37298786 -18.10793647 22.61744991 -25.37890625 25.16796875 C-27.03403984 25.7557737 -27.03403984 25.7557737 -28.72261047 26.35545349 C-31.09625123 27.19786193 -33.470704 28.03798522 -35.84588623 28.8760376 C-39.62107286 30.2081683 -43.39418744 31.54600103 -47.16650391 32.88623047 C-48.11845894 33.22442055 -48.11845894 33.22442055 -49.08964539 33.56944275 C-50.37641474 34.02659534 -51.66317569 34.48377159 -52.94992828 34.94097137 C-54.89254035 35.63097404 -56.8353763 36.32034309 -58.77825928 37.00958252 C-70.49445093 41.16725729 -82.18794012 45.38624932 -93.875 49.625 C-97.72384452 51.01984545 -101.57284618 52.41425697 -105.421875 53.80859375 C-106.37288589 54.1531662 -107.32389679 54.49773865 -108.3037262 54.85275269 C-119.23852723 58.81328548 -130.18165531 62.75064936 -141.125 66.6875 C-154.57469888 71.52631765 -168.02351629 76.36753646 -181.46875 81.21875 C-182.70359131 81.66428726 -183.93843262 82.10982452 -185.21069336 82.56886292 C-190.28845746 84.40099558 -195.36619004 86.23321556 -200.44384766 88.06564331 C-214.62327528 93.18252634 -228.80515773 98.29244723 -242.99367142 103.38408852 C-245.15267251 104.15887242 -247.31161818 104.93381058 -249.47055054 105.70878601 C-255.66204248 107.93117605 -261.85367244 110.1531707 -268.04659843 112.371562 C-269.95588836 113.05579514 -271.86486423 113.74089807 -273.77377319 114.42619324 C-276.24104331 115.31122408 -278.70914961 116.19392767 -281.1781311 117.07417297 C-287.28973063 119.26249137 -293.36433046 121.51558496 -299.40527344 123.89257812 C-300.60731415 124.35887634 -301.80935486 124.82517456 -303.04782104 125.30560303 C-305.29868786 126.18253869 -307.54303387 127.07650938 -309.77859497 127.99176025 C-318.1752895 131.24277179 -326.66731674 132.64828392 -335.4375 129.9375 C-339.99914157 126.48845394 -344.02724004 122.94905858 -344.875 117.0625 C-344.936875 115.5465625 -344.936875 115.5465625 -345 114 C-344.608125 114.53625 -344.21625 115.0725 -343.8125 115.625 C-343.214375 116.40875 -342.61625 117.1925 -342 118 C-341.236875 119.010625 -340.47375 120.02125 -339.6875 121.0625 C-336.41811817 124.63601038 -333.86107651 126.60321183 -328.97598267 127.28070068 C-321.02042801 127.60108953 -314.45600433 125.00535269 -307.1484375 122.140625 C-305.82136633 121.63498528 -304.49358131 121.13121558 -303.16513062 120.62921143 C-300.4356321 119.59672225 -297.70887582 118.55743783 -294.98376465 117.51342773 C-289.01122687 115.23408239 -282.99370457 113.08007603 -276.9765625 110.921875 C-274.62752105 110.07510033 -272.27856389 109.22809181 -269.9296875 108.38085938 C-267.49480406 107.50387185 -265.05990787 106.62691972 -262.625 105.75 C-260.66103219 105.04224007 -258.69710968 104.33435452 -256.73318863 103.62646484 C-235.82477555 96.09034065 -214.90935308 88.57372746 -193.99267578 81.06057739 C-171.65079808 73.03544517 -149.31661789 64.9891441 -126.98657227 56.93115234 C-114.12068286 52.2884959 -101.2534346 47.64969124 -88.38220215 43.02186584 C-80.23145181 40.09117444 -72.08266432 37.15506594 -63.93469238 34.21665955 C-57.79128528 32.00228117 -51.64421241 29.79838484 -45.49488831 27.60049438 C-41.38774431 26.130862 -37.28299479 24.65462433 -33.17874146 23.17694092 C-31.25032028 22.48429352 -29.32087838 21.79448039 -27.39035034 21.10772705 C-24.74186271 20.16520996 -22.09717176 19.21270378 -19.453125 18.2578125 C-18.68059891 17.98569946 -17.90807281 17.71358643 -17.11213684 17.43322754 C-11.99948945 15.57095462 -6.79879825 13.56759969 -3.57421875 8.96484375 C-3.13529297 7.96130859 -3.13529297 7.96130859 -2.6875 6.9375 C-2.38199219 6.26589844 -2.07648438 5.59429687 -1.76171875 4.90234375 C-1.11625507 3.29033958 -0.54910662 1.64731986 0 0 Z " fill="#AFB9C4" transform="translate(345,381)"/>
<path d="M0 0 C4.62 1.65 9.24 3.3 14 5 C5.6476655 13.3523345 -2.96296362 21.25128466 -12.17578125 28.6484375 C-16.61032258 32.34082184 -20.79587424 36.2929072 -25.015625 40.2265625 C-29.63353761 44.53105514 -34.40761607 48.64312405 -39.2109375 52.73828125 C-46.59402664 59.03774475 -53.8390366 65.44800042 -61 72 C-62.51515927 73.38124994 -64.03542357 74.75693691 -65.5625 76.125 C-66.18253906 76.68445313 -66.80257812 77.24390625 -67.44140625 77.8203125 C-69 79 -69 79 -71 79 C-69.6094672 75.88840849 -67.97662583 73.69566991 -65.62109375 71.2421875 C-64.95190918 70.5394873 -64.28272461 69.83678711 -63.59326172 69.11279297 C-62.88186035 68.37432129 -62.17045898 67.63584961 -61.4375 66.875 C-59.96924876 65.33409838 -58.50179453 63.79243692 -57.03515625 62.25 C-56.33148926 61.51136719 -55.62782227 60.77273438 -54.90283203 60.01171875 C-52.68611024 57.66814837 -50.51987465 55.28442276 -48.375 52.875 C-44.64652094 48.6893894 -40.83194074 44.59056896 -37 40.5 C-32.41390942 35.60372734 -27.88262423 30.66818219 -23.4140625 25.6640625 C-20.27307356 22.19779315 -17.07399431 18.78767877 -13.875 15.375 C-9.14897444 10.33226903 -4.4986306 5.24840237 0 0 Z " fill="#CCDDF6" transform="translate(97,399)"/>
<path d="M0 0 C1.00251488 3.08994312 1.0318106 4.84293854 -0.125 7.875 C-0.35445312 8.51179688 -0.58390625 9.14859375 -0.8203125 9.8046875 C-4.23245459 16.15443536 -8.18855792 19.08582329 -14.6328125 21.85546875 C-15.37612823 22.18975388 -16.11944397 22.524039 -16.88528442 22.86845398 C-19.2504248 23.92752435 -21.6245122 24.96437974 -24 26 C-25.51192109 26.67150156 -27.02332055 27.3441789 -28.53417969 28.01806641 C-32.46317657 29.76455347 -36.40111304 31.4898297 -40.34246826 33.20822144 C-44.82425419 35.16244774 -49.30242127 37.12494569 -53.78125 39.0859375 C-55.17082413 39.69395454 -55.17082413 39.69395454 -56.58847046 40.31425476 C-65.63966055 44.27599713 -74.67852546 48.26540565 -83.71463013 52.26141357 C-86.36978305 53.43519371 -89.02552142 54.60764003 -91.68139648 55.77978516 C-100.1529968 59.52020481 -108.61903203 63.27235064 -117.07202148 67.05467224 C-121.06345342 68.8398546 -125.0572789 70.6196443 -129.05133057 72.3989563 C-130.96298548 73.25242348 -132.87344641 74.10857047 -134.78265381 74.96749878 C-137.42380496 76.15555309 -140.06881894 77.33456796 -142.71484375 78.51171875 C-143.88981163 79.04457489 -143.88981163 79.04457489 -145.08851624 79.5881958 C-148.6776467 81.17474998 -151.01624933 82 -155 82 C-155 81.01 -155 80.02 -155 79 C-140.00857853 72.17462482 -125.00561945 65.38727261 -109.875 58.875 C-95.29640652 52.59904432 -80.7969666 46.14980385 -66.30395508 39.67895508 C-56.77965613 35.43081643 -47.24106984 31.22327299 -37.65625 27.11328125 C-36.7546666 26.72548492 -35.85308319 26.3376886 -34.92417908 25.93814087 C-30.65694838 24.10271166 -26.38630067 22.27645999 -22.10766602 20.46777344 C-20.58329562 19.813618 -19.05911472 19.15902076 -17.53515625 18.50390625 C-16.51639404 18.08012444 -16.51639404 18.08012444 -15.47705078 17.64778137 C-10.11246919 15.3212207 -5.40323909 12.57010367 -2.5390625 7.32421875 C-2.08660156 6.01904297 -2.08660156 6.01904297 -1.625 4.6875 C-1.14933594 3.36298828 -1.14933594 3.36298828 -0.6640625 2.01171875 C-0.44492187 1.34785156 -0.22578125 0.68398438 0 0 Z " fill="#AEB8C4" transform="translate(499,288)"/>
<path d="M0 0 C0.66 0.33 1.32 0.66 2 1 C-12.19073549 14.17402121 -12.19073549 14.17402121 -17.1796875 18.390625 C-19.0736191 20.01819605 -19.0736191 20.01819605 -20.9453125 22.046875 C-21.60273437 22.71203125 -22.26015625 23.3771875 -22.9375 24.0625 C-23.50339844 24.67222656 -24.06929687 25.28195312 -24.65234375 25.91015625 C-28.60803728 27.74649318 -31.99965094 26.33807303 -36 25 C-39.66441365 23.55181935 -43.20474354 21.90449653 -46.75 20.1875 C-47.66910156 19.76146484 -48.58820313 19.33542969 -49.53515625 18.89648438 C-54.56185321 16.49225377 -58.36797105 14.2500843 -62 10 C-61.24976562 10.20496094 -60.49953125 10.40992188 -59.7265625 10.62109375 C-40.7926529 15.60495661 -23.99845664 13.97134336 -6.90625 4.23828125 C-5.20436206 3.18927273 -3.51762606 2.11479531 -1.85546875 1.00390625 C-1.24316406 0.67261719 -0.63085938 0.34132813 0 0 Z " fill="#CE1962" transform="translate(139,377)"/>
<path d="M0 0 C0.33 0 0.66 0 1 0 C0.70646195 14.67690268 -10.08511425 27.43842401 -20.125 37.125 C-34.60841847 49.87040825 -55.98322453 60.04902891 -75.5 59.33984375 C-81.45084635 58.53090057 -85.42993067 56.08200829 -89.1875 51.4375 C-97.04366074 39.89809859 -102.27409537 24.97886377 -102 11 C-101.67 11 -101.34 11 -101 11 C-100.85304688 11.825 -100.70609375 12.65 -100.5546875 13.5 C-98.0618709 26.33657283 -94.52296346 41.41849373 -85 51 C-77.69157139 55.48263841 -69.5992801 55.31597456 -61.43212891 53.39648438 C-41.44389178 47.78803937 -19.86772536 37.5707185 -8.82617188 19.02880859 C-5.46427038 12.88096589 -2.52419055 6.53765352 0 0 Z " fill="#AEB9C4" transform="translate(471,60)"/>
<path d="M0 0 C0.33 0 0.66 0 1 0 C0.14944986 13.39616477 -6.40633938 24.928946 -16.0625 34.1875 C-28.26537575 44.71874894 -46.90879918 55.25493949 -63.375 54.95703125 C-65.3125 54.6875 -65.3125 54.6875 -68 54 C-68.495 52.515 -68.495 52.515 -69 51 C-68.030625 50.92523438 -67.06125 50.85046875 -66.0625 50.7734375 C-46.16943083 48.94197232 -26.91502464 40.64935021 -13.03515625 25.9140625 C-6.85159611 18.41801804 -2.15824063 9.49625878 0 0 Z " fill="#ADB8C4" transform="translate(356,162)"/>
<path d="M0 0 C0.33 0 0.66 0 1 0 C1.89113166 9.08954298 -1.46831725 17.87334811 -6.75 25.25 C-7.80630883 26.52291899 -8.89149181 27.7722701 -10 29 C-10.63550781 29.72703125 -11.27101563 30.4540625 -11.92578125 31.203125 C-23.9470531 44.12544282 -41.71216392 52.35613103 -59.4296875 53.12109375 C-63.19659362 52.94362553 -66.41942283 52.1705733 -70 51 C-70 50.67 -70 50.34 -70 50 C-69.41734375 49.94054199 -68.8346875 49.88108398 -68.234375 49.81982422 C-46.59476764 47.51040857 -27.04078062 42.4408743 -11.484375 26.09765625 C-5.35994199 18.46137421 -1.5034507 9.68890449 0 0 Z " fill="#AEB8C4" transform="translate(511,205)"/>
<path d="M0 0 C2.18559107 3.2783866 2.95942696 6.03674818 4.0625 9.8125 C6.86266255 18.77499598 11.47443575 27.61416157 18.27734375 34.20703125 C20 36 20 36 20 39 C11.13485532 35.42249151 6.7555474 24.16342553 3.16845703 15.87060547 C1.04671594 10.64602216 -0.0955603 5.67901208 0 0 Z " fill="#B1BAC7" transform="translate(31,349)"/>
<path d="M0 0 C2.8228542 2.8228542 3.2584753 6.18075895 4.25 9.9375 C6.05852422 16.51616323 8.3425109 22.15848434 11.9609375 27.99609375 C12.30382812 28.65738281 12.64671875 29.31867188 13 30 C12.67 30.66 12.34 31.32 12 32 C4.62422424 24.62422424 1.75728848 14.06447038 0 4 C0 2.68 0 1.36 0 0 Z " fill="#B6C0CD" transform="translate(257,165)"/>
<path d="M0 0 C0.33 0 0.66 0 1 0 C1.75822541 7.73389914 -0.7431167 14.0322436 -4 21 C-4.66 21.66 -5.32 22.32 -6 23 C-6.66 23 -7.32 23 -8 23 C-6.95355933 20.34739458 -5.87710518 17.71554252 -4.74609375 15.09765625 C-4.31425781 14.09605469 -3.88242187 13.09445313 -3.4375 12.0625 C-2.78587891 10.56396484 -2.78587891 10.56396484 -2.12109375 9.03515625 C-1.00307969 6.00833769 -0.42333108 3.19163094 0 0 Z " fill="#B5BFCB" transform="translate(511,205)"/>
<path d="M0 0 C0.33 0 0.66 0 1 0 C0.59524765 7.15062486 -1.82523652 12.62704304 -5 19 C-5.66 18.67 -6.32 18.34 -7 18 C-5.64474464 13.78224268 -4.09799886 9.70578678 -2.375 5.625 C-1.92898438 4.56539063 -1.48296875 3.50578125 -1.0234375 2.4140625 C-0.68570312 1.61742187 -0.34796875 0.82078125 0 0 Z " fill="#B6BFCA" transform="translate(471,60)"/>
<path d="M0 0 C0.66 0.66 1.32 1.32 2 2 C1.34 2 0.68 2 0 2 C-0.20625 2.53625 -0.4125 3.0725 -0.625 3.625 C-2.24437899 6.42210916 -4.22318532 8.33035217 -6.5625 10.53515625 C-8.23115578 12.14429168 -8.23115578 12.14429168 -10 15 C-9.39249174 10.86894386 -8.18884505 7.56700675 -6 4 C-3.9375 3.3125 -3.9375 3.3125 -2 3 C-1.34 2.01 -0.68 1.02 0 0 Z " fill="#E7E8EA" transform="translate(25,477)"/>
<path d="M0 0 C2.48982535 2.27745789 4.10368997 4.62335238 5.75 7.5625 C6.19859375 8.34753906 6.6471875 9.13257813 7.109375 9.94140625 C7.40328125 10.62074219 7.6971875 11.30007812 8 12 C7.67 12.66 7.34 13.32 7 14 C0 6.07894737 0 6.07894737 0 0 Z " fill="#AFB8C7" transform="translate(262,183)"/>
<path d="M0 0 C0.33 0 0.66 0 1 0 C1.20496094 0.90363281 1.40992188 1.80726563 1.62109375 2.73828125 C1.89050781 3.91777344 2.15992188 5.09726563 2.4375 6.3125 C2.83775391 8.07013672 2.83775391 8.07013672 3.24609375 9.86328125 C3.95313969 13.00236971 3.95313969 13.00236971 5 16 C4.01 15.67 3.02 15.34 2 15 C0.30833162 9.83595969 -0.22514824 5.4035577 0 0 Z " fill="#BAC2CD" transform="translate(385,225)"/>
</svg>
