<?xml version="1.0" encoding="UTF-8"?>
<svg version="1.1" xmlns="http://www.w3.org/2000/svg" width="512" height="512">
<path d="M0 0 C4.15787642 2.49944178 7.55686789 5.45203983 10.81640625 9.0546875 C12.17765625 10.4778125 12.17765625 10.4778125 13.56640625 11.9296875 C21.64449969 21.54548909 27.22700115 33.52238955 33.15820312 44.51367188 C36.16068548 50.0669357 39.24460841 55.559169 42.42529297 61.01220703 C51.87757124 77.25307808 59.76055881 93.63698655 65.59838867 111.53027344 C68.66935158 120.75784637 68.66935158 120.75784637 74.81640625 128.0546875 C81.29508746 131.10876402 87.60562288 131.50723069 94.66796875 131.53125 C95.68506927 131.54682953 96.7021698 131.56240906 97.75009155 131.57846069 C100.98052174 131.62562816 104.21074357 131.65357527 107.44140625 131.6796875 C111.68368054 131.72842716 115.92582306 131.78495155 120.16796875 131.84375 C121.69969223 131.86319923 121.69969223 131.86319923 123.26235962 131.88304138 C130.09763404 131.984254 136.86899806 132.31387166 143.68603516 132.83203125 C148.19005716 133.1523922 152.67720031 133.24577733 157.19140625 133.2421875 C158.0844043 133.24283203 158.97740234 133.24347656 159.89746094 133.24414062 C165.36405287 133.20126539 170.65699077 132.81733292 176.06640625 132.0546875 C183.35307555 131.04879868 190.58833888 130.76476783 197.94140625 130.6796875 C199.00907227 130.65390625 200.07673828 130.628125 201.17675781 130.6015625 C208.73899652 130.58241153 212.93646646 131.6496781 218.69921875 136.70703125 C220.51941443 140.53198791 220.53178786 144.4278779 220.69140625 148.6171875 C220.7267749 149.52178711 220.76214355 150.42638672 220.79858398 151.35839844 C220.96944859 158.12244786 220.52912579 163.784303 217.81640625 170.0546875 C217.56745605 170.64137207 217.31850586 171.22805664 217.06201172 171.83251953 C210.61459972 186.70226011 200.78910568 198.2530515 189.73828125 209.921875 C187.65722293 212.1226153 185.67257815 214.38327059 183.70703125 216.6875 C178.22083174 222.99497788 172.15930739 228.76736279 166.21386719 234.63671875 C160.68624651 240.09994655 155.19682431 245.54498617 150.16992188 251.48242188 C148.95065964 252.89873659 147.63787282 254.23322093 146.31640625 255.5546875 C142.8416573 261.34593575 146.7930198 271.01871472 148.08935547 277.32666016 C151.37805014 293.37319912 154.01952488 309.44406219 156.19140625 325.6796875 C156.31832855 326.62630249 156.44525085 327.57291748 156.57601929 328.54821777 C156.93885457 331.27121466 157.29724468 333.99473403 157.65234375 336.71875 C157.75620895 337.51538055 157.86007416 338.31201111 157.96708679 339.13278198 C161.1976542 364.43292775 163.78751988 393.02037203 147.79296875 414.6640625 C141.18855986 422.65200368 133.99128945 428.32885629 123.45703125 429.39453125 C93.50860984 430.21190083 68.85245278 407.04720388 47.57519531 388.57958984 C43.46195416 385.0133344 39.32800533 381.47135771 35.18359375 377.94140625 C33.01807577 376.09521878 30.88014032 374.2241824 28.76171875 372.32421875 C19.75347154 364.42706835 8.64839913 356.54969689 -3.85546875 356.78125 C-17.29171772 358.35933293 -27.99008944 367.67763701 -37.82421875 376.1796875 C-43.4397457 381.02088338 -49.30772047 385.53629521 -55.18359375 390.0546875 C-55.95155273 390.64862305 -56.71951172 391.24255859 -57.51074219 391.85449219 C-82.67066224 411.26243998 -109.99258849 430.04704415 -143.18359375 427.0546875 C-151.59458437 425.15399902 -158.01121167 420.94319634 -163.18359375 414.0546875 C-170.58553331 401.97684239 -172.09068123 389.09573455 -168.93359375 375.3671875 C-166.48692253 367.04680035 -162.82961751 359.27011311 -159.31030273 351.35839844 C-153.57102967 338.2565951 -149.13954485 324.7126914 -144.69995117 311.1262207 C-141.64841906 301.85215986 -138.37317999 292.75239921 -134.5390625 283.76953125 C-134.18008377 282.92661026 -133.82110504 282.08368927 -133.45124817 281.21522522 C-131.29317369 276.27142025 -128.87808484 271.65498191 -126.02656555 267.07252502 C-124.99020555 264.5917705 -125.22256407 263.5272461 -126.18359375 261.0546875 C-127.57230217 259.10764329 -127.57230217 259.10764329 -129.33203125 257.25390625 C-130.28287598 256.20662354 -130.28287598 256.20662354 -131.25292969 255.13818359 C-131.89004883 254.45062988 -132.52716797 253.76307617 -133.18359375 253.0546875 C-133.72532227 252.45865723 -134.26705078 251.86262695 -134.82519531 251.24853516 C-156.71847177 227.23218845 -156.71847177 227.23218845 -181.48583984 206.32470703 C-184.67598587 203.93829064 -187.76737389 201.42679427 -190.87109375 198.9296875 C-191.49943115 198.42526123 -192.12776855 197.92083496 -192.77514648 197.40112305 C-194.00096448 196.4167711 -195.22631855 195.43184112 -196.45117188 194.44628906 C-198.06167534 193.15262083 -199.67712467 191.86511639 -201.29296875 190.578125 C-212.73907705 181.37697164 -225.21542727 170.52782612 -227.18359375 155.0546875 C-227.27284998 152.25303358 -227.19975306 149.47861184 -227.05859375 146.6796875 C-227.02507812 145.98915283 -226.9915625 145.29861816 -226.95703125 144.5871582 C-226.64198753 140.56788953 -226.216769 137.81330809 -223.18359375 135.0546875 C-210.91256288 129.65093078 -195.93632423 129.18132707 -182.81494141 127.52490234 C-179.48821253 127.09413188 -176.170302 126.6246911 -172.8515625 126.13671875 C-153.10486189 123.30216377 -134.02290738 123.25092297 -114.2512207 125.91210938 C-106.65285106 126.931587 -99.12236143 127.50390999 -91.46166992 127.76342773 C-87.60103841 127.89862175 -83.94373508 128.13721302 -80.18359375 129.0546875 C-79.92763428 127.88583008 -79.6716748 126.71697266 -79.40795898 125.51269531 C-78.34759481 121.28562352 -76.63398255 117.56298613 -74.59375 113.7265625 C-71.57105212 107.86380945 -68.70869111 101.95617488 -65.9921875 95.9453125 C-65.64009216 95.1688739 -65.28799683 94.3924353 -64.92523193 93.59246826 C-64.19814063 91.98891701 -63.47137921 90.38521615 -62.74493408 88.78137207 C-56.4428508 74.89303582 -49.85110428 61.30917158 -42.46020508 47.96826172 C-39.35159991 42.30014734 -36.4601472 36.62064836 -33.90234375 30.6875 C-33.63831757 30.07644409 -33.37429138 29.46538818 -33.1022644 28.83581543 C-31.85941434 25.9388707 -30.64950608 23.03263922 -29.47705078 20.10644531 C-26.1707263 12.18941028 -21.6362016 3.63113915 -13.54077148 -0.1940918 C-8.9545588 -1.65569474 -4.48236874 -1.94048879 0 0 Z " fill="#E35985" transform="translate(259.18359375,26.9453125)"/>
<path d="M0 0 C4.15787642 2.49944178 7.55686789 5.45203983 10.81640625 9.0546875 C12.17765625 10.4778125 12.17765625 10.4778125 13.56640625 11.9296875 C21.64449969 21.54548909 27.22700115 33.52238955 33.15820312 44.51367188 C36.16068548 50.0669357 39.24460841 55.559169 42.42529297 61.01220703 C51.87757124 77.25307808 59.76055881 93.63698655 65.59838867 111.53027344 C68.66935158 120.75784637 68.66935158 120.75784637 74.81640625 128.0546875 C81.29508746 131.10876402 87.60562288 131.50723069 94.66796875 131.53125 C95.68506927 131.54682953 96.7021698 131.56240906 97.75009155 131.57846069 C100.98052174 131.62562816 104.21074357 131.65357527 107.44140625 131.6796875 C111.68368054 131.72842716 115.92582306 131.78495155 120.16796875 131.84375 C121.69969223 131.86319923 121.69969223 131.86319923 123.26235962 131.88304138 C130.09763404 131.984254 136.86899806 132.31387166 143.68603516 132.83203125 C148.19005716 133.1523922 152.67720031 133.24577733 157.19140625 133.2421875 C158.0844043 133.24283203 158.97740234 133.24347656 159.89746094 133.24414062 C165.36405287 133.20126539 170.65699077 132.81733292 176.06640625 132.0546875 C183.35307555 131.04879868 190.58833888 130.76476783 197.94140625 130.6796875 C199.00907227 130.65390625 200.07673828 130.628125 201.17675781 130.6015625 C208.73899652 130.58241153 212.93646646 131.6496781 218.69921875 136.70703125 C220.51941443 140.53198791 220.53178786 144.4278779 220.69140625 148.6171875 C220.7267749 149.52178711 220.76214355 150.42638672 220.79858398 151.35839844 C220.96944859 158.12244786 220.52912579 163.784303 217.81640625 170.0546875 C217.56745605 170.64137207 217.31850586 171.22805664 217.06201172 171.83251953 C210.61459972 186.70226011 200.78910568 198.2530515 189.73828125 209.921875 C187.65722293 212.1226153 185.67257815 214.38327059 183.70703125 216.6875 C178.22083174 222.99497788 172.15930739 228.76736279 166.21386719 234.63671875 C160.68624651 240.09994655 155.19682431 245.54498617 150.16992188 251.48242188 C148.95065964 252.89873659 147.63787282 254.23322093 146.31640625 255.5546875 C142.8416573 261.34593575 146.7930198 271.01871472 148.08935547 277.32666016 C151.37805014 293.37319912 154.01952488 309.44406219 156.19140625 325.6796875 C156.31832855 326.62630249 156.44525085 327.57291748 156.57601929 328.54821777 C156.93885457 331.27121466 157.29724468 333.99473403 157.65234375 336.71875 C157.75620895 337.51538055 157.86007416 338.31201111 157.96708679 339.13278198 C161.1976542 364.43292775 163.78751988 393.02037203 147.79296875 414.6640625 C141.18855986 422.65200368 133.99128945 428.32885629 123.45703125 429.39453125 C93.50860984 430.21190083 68.85245278 407.04720388 47.57519531 388.57958984 C43.46195416 385.0133344 39.32800533 381.47135771 35.18359375 377.94140625 C33.01807577 376.09521878 30.88014032 374.2241824 28.76171875 372.32421875 C19.75347154 364.42706835 8.64839913 356.54969689 -3.85546875 356.78125 C-17.29171772 358.35933293 -27.99008944 367.67763701 -37.82421875 376.1796875 C-43.4397457 381.02088338 -49.30772047 385.53629521 -55.18359375 390.0546875 C-55.95155273 390.64862305 -56.71951172 391.24255859 -57.51074219 391.85449219 C-82.67066224 411.26243998 -109.99258849 430.04704415 -143.18359375 427.0546875 C-151.59458437 425.15399902 -158.01121167 420.94319634 -163.18359375 414.0546875 C-170.58553331 401.97684239 -172.09068123 389.09573455 -168.93359375 375.3671875 C-166.48692253 367.04680035 -162.82961751 359.27011311 -159.31030273 351.35839844 C-153.57102967 338.2565951 -149.13954485 324.7126914 -144.69995117 311.1262207 C-141.64841906 301.85215986 -138.37317999 292.75239921 -134.5390625 283.76953125 C-134.18008377 282.92661026 -133.82110504 282.08368927 -133.45124817 281.21522522 C-131.29317369 276.27142025 -128.87808484 271.65498191 -126.02656555 267.07252502 C-124.99020555 264.5917705 -125.22256407 263.5272461 -126.18359375 261.0546875 C-127.57230217 259.10764329 -127.57230217 259.10764329 -129.33203125 257.25390625 C-130.28287598 256.20662354 -130.28287598 256.20662354 -131.25292969 255.13818359 C-131.89004883 254.45062988 -132.52716797 253.76307617 -133.18359375 253.0546875 C-133.72532227 252.45865723 -134.26705078 251.86262695 -134.82519531 251.24853516 C-156.71847177 227.23218845 -156.71847177 227.23218845 -181.48583984 206.32470703 C-184.67598587 203.93829064 -187.76737389 201.42679427 -190.87109375 198.9296875 C-191.49943115 198.42526123 -192.12776855 197.92083496 -192.77514648 197.40112305 C-194.00096448 196.4167711 -195.22631855 195.43184112 -196.45117188 194.44628906 C-198.06167534 193.15262083 -199.67712467 191.86511639 -201.29296875 190.578125 C-212.73907705 181.37697164 -225.21542727 170.52782612 -227.18359375 155.0546875 C-227.27284998 152.25303358 -227.19975306 149.47861184 -227.05859375 146.6796875 C-227.02507812 145.98915283 -226.9915625 145.29861816 -226.95703125 144.5871582 C-226.64198753 140.56788953 -226.216769 137.81330809 -223.18359375 135.0546875 C-210.91256288 129.65093078 -195.93632423 129.18132707 -182.81494141 127.52490234 C-179.48821253 127.09413188 -176.170302 126.6246911 -172.8515625 126.13671875 C-153.10486189 123.30216377 -134.02290738 123.25092297 -114.2512207 125.91210938 C-106.65285106 126.931587 -99.12236143 127.50390999 -91.46166992 127.76342773 C-87.60103841 127.89862175 -83.94373508 128.13721302 -80.18359375 129.0546875 C-79.92763428 127.88583008 -79.6716748 126.71697266 -79.40795898 125.51269531 C-78.34759481 121.28562352 -76.63398255 117.56298613 -74.59375 113.7265625 C-71.57105212 107.86380945 -68.70869111 101.95617488 -65.9921875 95.9453125 C-65.64009216 95.1688739 -65.28799683 94.3924353 -64.92523193 93.59246826 C-64.19814063 91.98891701 -63.47137921 90.38521615 -62.74493408 88.78137207 C-56.4428508 74.89303582 -49.85110428 61.30917158 -42.46020508 47.96826172 C-39.35159991 42.30014734 -36.4601472 36.62064836 -33.90234375 30.6875 C-33.63831757 30.07644409 -33.37429138 29.46538818 -33.1022644 28.83581543 C-31.85941434 25.9388707 -30.64950608 23.03263922 -29.47705078 20.10644531 C-26.1707263 12.18941028 -21.6362016 3.63113915 -13.54077148 -0.1940918 C-8.9545588 -1.65569474 -4.48236874 -1.94048879 0 0 Z M-14.18359375 16.0546875 C-17.17314206 21.21845276 -19.58437072 26.66297457 -21.96875 32.125 C-26.72966556 42.9923588 -31.94888453 53.53973965 -37.43359375 64.0546875 C-42.90941123 74.55457577 -48.18839664 85.10081347 -53.12109375 95.8671875 C-69.67059129 131.98744581 -69.67059129 131.98744581 -76.18359375 140.0546875 C-88.96591611 140.0546875 -101.65180215 139.2329935 -114.30859375 137.4921875 C-146.07360283 133.46584516 -176.78779728 137.8658472 -208.18359375 143.0546875 C-209.52622536 143.26370445 -209.52622536 143.26370445 -210.89598083 143.47694397 C-213.35300766 143.82969138 -213.35300766 143.82969138 -214.55859375 146.0546875 C-215.96873129 152.82334768 -214.57499736 158.74648872 -211.00390625 164.61328125 C-203.41877429 174.78647326 -193.20522778 182.45103224 -183.18359375 190.0546875 C-175.0884947 196.24960108 -167.29672455 202.59524326 -159.85546875 209.56640625 C-157.62935815 211.63955311 -155.37111757 213.64229215 -153.05859375 215.6171875 C-146.15592309 221.61576616 -139.83471637 228.18083993 -133.89453125 235.125 C-132.06559512 237.18777271 -130.14778917 239.1205947 -128.18359375 241.0546875 C-124.89029787 244.3033933 -121.79205698 247.66130495 -118.7890625 251.1796875 C-117.7729461 252.36639279 -116.73599376 253.53582857 -115.671875 254.6796875 C-112.57306769 258.08926345 -111.41681401 260.45854183 -111.18359375 265.0546875 C-112.484375 267.640625 -112.484375 267.640625 -114.49609375 270.4296875 C-125.35618496 286.85179626 -130.7826167 306.52339905 -136.95211792 325.05044556 C-141.49230429 338.64742975 -146.64310978 351.64766817 -152.7578125 364.61328125 C-157.99237276 375.92559255 -161.58354155 388.67680502 -157.1875 400.83984375 C-154.06015859 407.73946468 -149.94199276 411.63307127 -143.18359375 415.0546875 C-128.50637031 419.94709531 -112.49293215 412.58325203 -99.44433594 406.21240234 C-81.82621734 397.19025133 -66.02006244 384.29082938 -51.11328125 371.40625 C-35.07946513 357.57945871 -19.45239426 344.62719739 2.75634766 345.84130859 C17.75683979 347.39504528 31.84656008 359.61516518 42.81640625 369.0546875 C43.90454585 369.9809413 44.99310713 370.90669988 46.08203125 371.83203125 C50.89374368 375.93276745 55.69366561 380.04366936 60.41015625 384.25390625 C87.71369545 408.93139647 87.71369545 408.93139647 122.06640625 418.0546875 C129.86098098 416.86991214 135.36276648 412.31200267 140.28125 406.3515625 C147.30304266 395.84567425 148.18861409 382.48575508 148.12890625 370.2421875 C148.1239917 369.02297607 148.11907715 367.80376465 148.11401367 366.54760742 C147.7315814 335.91576285 142.68896059 304.69719183 135.890625 274.85546875 C132.06839801 258.03700929 132.06839801 258.03700929 133.81640625 251.0546875 C136.44140625 248.6796875 136.44140625 248.6796875 138.10009766 247.43994141 C139.95634676 245.94173978 141.37214439 244.34437672 142.90234375 242.515625 C148.07760797 236.50674283 153.78779657 231.03809405 159.43359375 225.4765625 C163.89915381 221.05172184 168.22722796 216.59025296 172.29492188 211.79492188 C173.8957273 209.96396213 175.58021106 208.25706896 177.31640625 206.5546875 C181.02778617 202.88427203 184.45781761 199.04970663 187.81640625 195.0546875 C188.26709473 194.52842773 188.7177832 194.00216797 189.18212891 193.45996094 C200.25548793 180.46943411 209.89861356 166.89564798 208.81640625 149.0546875 C208.55293481 146.37085127 208.20477259 143.72470612 207.81640625 141.0546875 C202.11497884 140.91562829 196.80848829 141.25500835 191.17773438 142.12207031 C176.53177487 144.33645941 162.0461002 144.38828914 147.27246094 144.14160156 C141.97803267 144.05334866 136.6834298 143.99404575 131.38861084 143.93457031 C126.33862585 143.87542065 121.28882314 143.80577635 116.23901367 143.73327637 C113.72456019 143.69779437 111.2100727 143.66463992 108.69555664 143.63391113 C105.12364713 143.58822088 101.55214023 143.53006638 97.98046875 143.46875 C96.91700226 143.45717865 95.85353577 143.4456073 94.75784302 143.4336853 C82.86549032 143.20111273 73.17353271 142.01667417 64.2890625 133.609375 C58.9163056 127.63238708 56.28436146 119.89290288 53.69140625 112.4296875 C44.73919354 87.56734204 31.79387189 64.81706722 18.640625 41.9921875 C16.81768474 38.82228664 15.02749239 35.63820663 13.2734375 32.4296875 C6.79089593 19.64942965 6.79089593 19.64942965 -4.18359375 11.0546875 C-9.06992897 10.07742046 -11.47051392 12.23356305 -14.18359375 16.0546875 Z " fill="#030201" transform="translate(259.18359375,26.9453125)"/>
<path d="M0 0 C1.875 1.0625 1.875 1.0625 3 3 C3.53457859 7.04752357 3.30177085 9.38388452 1.5 13.0625 C-5.74634919 21.5769603 -17.26970307 28.02376871 -28.4453125 29.2734375 C-39.90628385 29.70781834 -46.73065792 24.70476326 -54.96875 17.18359375 C-58.00041547 13.92455337 -58.90828741 11.87126959 -59.375 7.4375 C-59 4 -59 4 -57.3125 2 C-55 1 -55 1 -52.5625 0.8125 C-49.06795227 2.43192456 -48.12109344 4.72897251 -46.24609375 8 C-44.56125035 10.70420006 -42.6492375 12.25538018 -40 14 C-39.0925 14.598125 -38.185 15.19625 -37.25 15.8125 C-31.6136051 17.87195198 -27.32057766 16.99288397 -21.859375 14.65625 C-17.74951684 12.6311025 -13.81366699 10.54244466 -10 8 C-9.30643577 5.67451993 -8.63850788 3.34119555 -8 1 C-5.20129973 -0.39935013 -3.09501208 -0.25265405 0 0 Z " fill="#050401" transform="translate(300,296)"/>
<path d="M0 0 C2.62009977 1.00773068 3.68221855 1.78284272 5.4375 3.9375 C5.88671875 5.953125 5.88671875 5.953125 6.125 8.1875 C7.1028067 13.15801741 9.33641971 15.66598169 13.28125 18.74609375 C15.5660709 20.21425988 15.5660709 20.21425988 19.125 20.125 C23.7835596 18.45495033 26.50646869 16.60559777 28.9375 12.25 C30.4375 9.9375 30.4375 9.9375 32.8125 8.875 C36.42563395 8.961027 37.86849886 10.51529893 40.4375 12.9375 C40.30177861 18.36635576 38.09996172 21.23596221 34.51953125 25.03515625 C29.77479786 29.37040046 24.99987646 32.16654476 18.5 32.625 C10.66565493 32.17489011 4.68721844 27.59042659 -0.5 22 C-4.27492526 17.31695592 -6.27969792 13.32111753 -7 7.25 C-6.5625 3.9375 -6.5625 3.9375 -4.875 1.4375 C-2.5625 -0.0625 -2.5625 -0.0625 0 0 Z " fill="#080601" transform="translate(207.5625,206.0625)"/>
<path d="M0 0 C4.54565594 2.13077622 7.49320493 6.65078162 10.6328125 10.44921875 C12.68366132 12.68171418 13.96856827 12.93291621 17 13.375 C23.02286734 13.33696084 28.87415768 9.06334232 33 4.9375 C36.13704316 4.603772 38.16554166 4.40900972 40.875 6.125 C42.40749464 8.59401915 42.34417898 10.06790772 42 12.9375 C36.69388644 18.98698212 27.93197808 24.08537813 20.015625 25.453125 C13.68912355 25.80638143 9.22776434 24.87162573 4.18359375 20.984375 C-0.00734249 17.05584085 -4.10982393 12.92632151 -7 7.9375 C-6.82558969 4.65198695 -6.48000644 3.43405838 -4.1875 1.0625 C-2 -0.0625 -2 -0.0625 0 0 Z " fill="#070501" transform="translate(296,210.0625)"/>
</svg>
